<svg width="18" height="16" viewBox="0 0 18 16" fill="none" xmlns="http://www.w3.org/2000/svg">
<path d="M0.249911 15.9915C0.313945 16.0082 0.381974 15.999 0.439254 15.9659C0.496533 15.9327 0.538448 15.8784 0.555911 15.8145C1.07091 13.893 3.16391 13.395 4.41491 13.097C4.72841 13.0225 4.97591 12.9635 5.13691 12.894C6.56191 12.2755 7.02641 11.2805 7.16541 10.5545C7.17368 10.5113 7.1704 10.4667 7.15592 10.4252C7.14143 10.3837 7.11625 10.3467 7.08291 10.318C6.34091 9.67753 5.71491 8.71603 5.31991 7.61003C5.30867 7.57835 5.29115 7.54927 5.26841 7.52453C4.74591 6.95653 4.44591 6.35603 4.44591 5.87753C4.44591 5.59803 4.55141 5.41053 4.78891 5.26903C4.82449 5.24776 4.85422 5.21798 4.87542 5.18237C4.89663 5.14676 4.90866 5.10644 4.91041 5.06503C5.02091 2.51803 6.83491 0.513026 9.05991 0.500026L9.11341 0.503526C11.3494 0.534526 13.1519 2.58253 13.2164 5.16553C13.2174 5.20082 13.2258 5.23551 13.2411 5.26731C13.2565 5.29911 13.2784 5.3273 13.3054 5.35003C13.4619 5.48253 13.5349 5.65053 13.5349 5.87853C13.5349 6.27903 13.3214 6.77153 12.9344 7.26453C12.9158 7.28812 12.9015 7.31488 12.8924 7.34353C12.4924 8.61153 11.7744 9.73103 10.9234 10.416C10.8881 10.4444 10.8611 10.4819 10.8454 10.5244C10.8298 10.567 10.826 10.613 10.8344 10.6575C10.9734 11.383 11.4379 12.3775 12.8629 12.997C13.0314 13.07 13.2929 13.127 13.6244 13.1985C14.8629 13.4665 16.9354 13.916 17.4439 15.8145C17.4524 15.8462 17.4671 15.876 17.4872 15.902C17.5072 15.928 17.5321 15.9499 17.5606 15.9663C17.5891 15.9826 17.6205 15.9933 17.653 15.9975C17.6856 16.0018 17.7187 15.9996 17.7504 15.991C17.7821 15.9825 17.8118 15.9678 17.8379 15.9478C17.8639 15.9277 17.8857 15.9028 17.9021 15.8743C17.9185 15.8459 17.9292 15.8145 17.9334 15.7819C17.9377 15.7493 17.9354 15.7162 17.9269 15.6845C17.3394 13.491 14.9914 12.9825 13.7304 12.7095C13.4379 12.646 13.1854 12.5915 13.0624 12.5375C12.1324 12.1335 11.5594 11.518 11.3569 10.705C12.2204 9.96353 12.9429 8.81953 13.3559 7.53653C13.7944 6.96653 14.0354 6.37953 14.0354 5.87803C14.0354 5.54353 13.9274 5.26453 13.7134 5.04653C13.5944 2.24453 11.5949 0.0380259 9.11341 0.00252588L9.03891 0.00152588C6.60241 0.0145259 4.59441 2.16303 4.41891 4.91653C4.10591 5.14653 3.94691 5.46903 3.94691 5.87853C3.94691 6.47003 4.28141 7.17753 4.86691 7.82653C5.27141 8.93803 5.89841 9.91453 6.64491 10.598C6.44341 11.414 5.86991 12.0315 4.93791 12.436C4.81741 12.4885 4.57741 12.546 4.29941 12.612C3.02891 12.914 0.664911 13.4765 0.0729109 15.6855C0.0558142 15.7496 0.0648563 15.8178 0.0980488 15.8752C0.131241 15.9326 0.185866 15.9744 0.249911 15.9915Z" fill="black"/>
</svg>
