<svg width="1074" height="670" viewBox="0 0 1074 670" fill="none" xmlns="http://www.w3.org/2000/svg">
<g id="Map+lvl">
<g id="Bayone">
<path d="M50 587H68L76.5 591H104L113 583H138L145 587H174L182.5 583H200V591H234.5L241 584V568H269V549H279V539.5H292V499.5H288V497H273V474H251L245 476V462H194V480H153.5L134 485H123V486.5H120.5V485L109 472H107L96.5 479H89.5L86 474L78.5 472H66.5L50 475.5L46 484V510L42.5 519V522.5L38.5 524.5V527.5L42.5 545H53.5V562H50V587Z" fill="#2A2A2A"/>
<path d="M29 574H38V572H39V560H38V559H35V558H33V557H32V556H33V555H35V554H36V539H35V528H34V525H33V522H32V519H33V516H34V513H35V511H31V512H30V516H29V520H28V573H29V574Z" fill="#2A2A2A"/>
<path d="M50 587H68L76.5 591H104L113 583H138L145 587H174L182.5 583H200V591H234.5L241 584V568H269V549H279V539.5H292V499.5H288V497H273V474H251L245 476V462H194V480H153.5L134 485H123V486.5H120.5V485L109 472H107L96.5 479H89.5L86 474L78.5 472H66.5L50 475.5L46 484V510L42.5 519V522.5L38.5 524.5V527.5L42.5 545H53.5V562H50V587Z" stroke="black"/>
<path d="M29 574H38V572H39V560H38V559H35V558H33V557H32V556H33V555H35V554H36V539H35V528H34V525H33V522H32V519H33V516H34V513H35V511H31V512H30V516H29V520H28V573H29V574Z" stroke="black"/>
</g>
<path id="New Jersey" d="M12 461V463L27 465H99L157 461L195 462H226V438H263V424H225V412H278V398H245V387H283V363H246V354H281V340H255V322L292 300V297L284 286V284L303 281V276L297 273V269L309 266.5V249H306V234L312 225V220L317 212V195L319 192V183L325 178V169L322 165V157L315 147L322 137L324 132V123L310 110V107L314 101L316 96L312 93L302 86V81L308 73V72L306 67L299 49L295 40L290 33L287 30L282 28L270 22H267L261 30L256 37L252 44L251 47L250 49L249 52L246 56H240L236 51V41H228L227 39H200V55H181L178 58L175 70V74L177 78V98L176 99L173 103L169 109L161 127V141H152V145L161 161V165L158 168L155 173L151 179L147 185L131 196V201L123 209V224L121 226V231L111 246V264L98 279V285L90 290V295L86 298V309L90 316V321L30 388H1V397H9V398H8V401H7V435H6V439H5V453L12 461Z" fill="#2A2A2A" stroke="black"/>
<g id="New York">
<path d="M583 317H610L614 309L615 293L617 256V239.5L616 235L613 230L612 214L605 206L595 205H567V224H576L577 228L565 243.5V260L569 272L578 293L579 312L583 317Z" fill="#2A2A2A"/>
<path d="M338.5 375.5V384L401 386H454L520 384L521.5 380V361L520.5 358L518.5 348V334L513.5 333.5V295L514.5 289L516.5 276L517.5 217L519.5 209L520.5 199L516.5 195L512.5 190L510 188.5L507 186.5L504.5 184L501.5 175L498.5 165L497.5 160L502 155V153L501.5 152L494.5 144L493.5 142.5H489.5L488.5 144L486 146.5H484L481.5 144V121L474.5 107L473.5 103L472.5 101L464.5 88L458 74.5H403.5L402.5 73L400.5 69L398.5 59L398 55H382V66.5H367.5L362.5 77L361.5 82L359.5 93L345.5 163L343.5 168L341.5 171L340.5 173L336.5 179L334.5 183V188.5L328 195V195.5H335V196.5L337 198.5L338.5 199.5V205L339.5 209L340 212.5L339.5 213.5L328.5 213.593V246L329.5 252L330.5 257L332.5 265L334.5 271L338.5 279L339.5 280V283.5L337.5 285V291L339.5 292.648V340.5H313V351.5H339V364.5H318.5V375.5H338.5Z" fill="#2A2A2A"/>
<path d="M583 317H610L614 309L615 293L617 256V239.5L616 235L613 230L612 214L605 206L595 205H567V224H576L577 228L565 243.5V260L569 272L578 293L579 312L583 317Z" stroke="black"/>
<path d="M338.5 375.5V384L401 386H454L520 384L521.5 380V361L520.5 358L518.5 348V334L513.5 333.5V295L514.5 289L516.5 276L517.5 217L519.5 209L520.5 199L516.5 195L512.5 190L510 188.5L507 186.5L504.5 184L501.5 175L498.5 165L497.5 160L502 155V153L501.5 152L494.5 144L493.5 142.5H489.5L488.5 144L486 146.5H484L481.5 144V121L474.5 107L473.5 103L472.5 101L464.5 88L458 74.5H403.5L402.5 73L400.5 69L398.5 59L398 55H382V66.5H367.5L362.5 77L361.5 82L359.5 93L345.5 163L343.5 168L341.5 171L340.5 173L336.5 179L334.5 183V188.5L328 195V195.5H335V196.5L337 198.5L338.5 199.5V205L339.5 209L340 212.5L339.5 213.5L328.5 213.593V246L329.5 252L330.5 257L332.5 265L334.5 271L338.5 279L339.5 280V283.5L337.5 285V291L339.5 292.648V340.5H313V351.5H339V364.5H318.5V375.5H338.5Z" stroke="black"/>
</g>
<g id="Queens">
<path d="M826 416L823.5 413.5L819 413L781.5 408H744.5L708.5 399.5L688.5 397.5L668.5 396.5L653.5 394L639.5 395L639 367.5L632 360V359.5L633 354.5L634 348.5L635 343.5H641V340.5L644 323L646 307L649 301L648.5 249H659.5L658.5 245L655.5 231C678.5 229.167 724.5 225.3 724.5 224.5C724.5 223.7 727.5 224.167 729 224.5V209.5H752V221.5H768.5L778.5 224.5H781.5L802.5 214.5H812.5L827.5 215L828.5 214L838.5 203H842L848.5 209L853.5 214H855.5L866.5 217L873.5 223L879.5 229L892 251L894.5 253.5L902.5 258H910.5L943 244H944.5L950.5 248L967.5 260L977.5 267L981.5 270L987.5 274L1001.5 284L1007.5 288L1015.5 294L1024.5 300L1027.5 304L1029.5 315V321H1031.5L1047.5 333L1049 335.5H1051.5L1052.5 334.5L1067 332L1068 335V340.5L1073 349V355L1070 372.5L1059.5 376.5H1056.5L1056 383L1054 398.5L1030.5 399.5L1029.5 401L1027.5 403.5L1023.5 406L1021.5 407L1014.5 423L1006.5 434L1002.5 440L995 455L987 442L986 444L979.5 452L971.5 461L959.5 475H943.5L916.5 474V473L941 449V447L936.5 432.5H919.5L897.5 431.5L878.5 435.5H875.5L851.5 427.5L843 427V429.5L847 440V443.5H833.5L827 442L826 416Z" fill="#2A2A2A"/>
<path d="M820 413L823.5 413.5M823.5 413.5L826 416L827 442L833.5 443.5H847V440L843 429.5V427L851.5 427.5L875.5 435.5H878.5L897.5 431.5L919.5 432.5H936.5L941 447V449L916.5 473V474L943.5 475H959.5L971.5 461L979.5 452L986 444L987 442L995 455L1002.5 440L1006.5 434L1014.5 423L1021.5 407L1023.5 406L1027.5 403.5L1029.5 401L1030.5 399.5L1054 398.5L1056 383L1056.5 376.5H1059.5L1070 372.5L1073 355V349L1068 340.5V335L1067 332L1052.5 334.5L1051.5 335.5H1049L1047.5 333L1031.5 321H1029.5V315L1027.5 304L1024.5 300L1015.5 294L1007.5 288L1001.5 284L987.5 274L981.5 270L977.5 267L967.5 260L950.5 248L944.5 244H943L910.5 258H902.5L894.5 253.5L892 251L879.5 229L873.5 223L866.5 217L855.5 214H853.5L848.5 209L842 203H838.5L828.5 214L827.5 215L812.5 214.5H802.5L781.5 224.5H778.5L768.5 221.5H752V209.5H729V224.5C727.5 224.167 724.5 223.7 724.5 224.5C724.5 225.3 678.5 229.167 655.5 231L658.5 245L659.5 249H648.5L649 301L646 307L644 323L641 340.5V343.5H635L634 348.5L633 354.5L632 359.5V360L639 367.5L639.5 395L653.5 394L668.5 396.5L688.5 397.5L708.5 399.5L744.5 408H781.5L819 413L823.5 413.5Z" stroke="black"/>
</g>
<path id="Bronx" d="M553 169.5V182L556 189L564.5 192H580L583 190V188H592V191H608L610 188H614L616 186.5V181.5H618L623 178.5L625 177V179H624V181H648.5V180H647V175V157H653V124H654.5L655 125L657 129.5L667 141H669L670 130L679 122L684.5 116.5L688 121H691L692 122L694 127L697 131L710 138L713.5 134L714 135V158H712L709 161V162H740V161L736 158H754V124L755.5 120H780V106L782 102V99H784L791 87V72.5L785 62L780 56L777 54L766 47H759V33H752.5V24.5L722 22L717 18H701L697 20V24H695V21H686V24H683V15L655.5 14L652 1H606V7H603L598 8L588 13H580.5L580 10L577 9H553L549 10L547 13L546 17L531 40V65H523L517 66L513 70V81.5H520L525 83.5V90.5H532V103.5L524 107V118L541 156.5L546 162.5L553 169.5Z" fill="#2A2A2A" stroke="black"/>
<g id="Manhattan">
<path d="M342 655L355 669H365L366 668L368 655H376V641H384V648H388V634H384V638H376V624L369 605L364 592L360 582L351 577H337L336 579L327 588L326 591V593H308V591H305V601H308V597H325L323 601V613L324 626L334 645L342 655Z" fill="#2A2A2A"/>
<path d="M445 643V660H454V644H459L472 640L475 643L480 647L486 650H488L510 641L518 635L530 625V616L528 601L533 592H536L553 602H555L559 596V593L555 591V590L560 581L561 579V578L559 577H556L555 578L550 587L547 586C544.667 584.833 540 582.4 540 582V580L544 573L551 560L572 558L573 552L576 550V545L573 543L572 537H551V528L550 499L549 477H544V466L542 445L537 433L533 429L528 425L526 424L525 422L521 402L520 384L454 386H401L366 385L338 384V404H306V414H338V422H306V432H338V439H299V450H338V469H313V470L319 482L329 499L351 530H372V532L390 552H396V554L402 561H393L389 569V571L401 586H404L419 583V623L435 638L445 643Z" fill="#2A2A2A"/>
<path d="M552 379H557V360H567V353L570 351H574L576 352V360H586V376H594V393L585 403V414L582 417V422L584 428L586 441V459L583 462H574L570 459V447H555L550 421V390L551.5 387.5L552 379Z" fill="#2A2A2A"/>
<path d="M342 655L355 669H365L366 668L368 655H376V641H384V648H388V634H384V638H376V624L369 605L364 592L360 582L351 577H337L336 579L327 588L326 591V593H308V591H305V601H308V597H325L323 601V613L324 626L334 645L342 655Z" stroke="black"/>
<path d="M445 643V660H454V644H459L472 640L475 643L480 647L486 650H488L510 641L518 635L530 625V616L528 601L533 592H536L553 602H555L559 596V593L555 591V590L560 581L561 579V578L559 577H556L555 578L550 587L547 586C544.667 584.833 540 582.4 540 582V580L544 573L551 560L572 558L573 552L576 550V545L573 543L572 537H551V528L550 499L549 477H544V466L542 445L537 433L533 429L528 425L526 424L525 422L521 402L520 384L454 386H401L366 385L338 384V404H306V414H338V422H306V432H338V439H299V450H338V469H313V470L319 482L329 499L351 530H372V532L390 552H396V554L402 561H393L389 569V571L401 586H404L419 583V623L435 638L445 643Z" stroke="black"/>
<path d="M552 379H557V360H567V353L570 351H574L576 352V360H586V376H594V393L585 403V414L582 417V422L584 428L586 441V459L583 462H574L570 459V447H555L550 421V390L551.5 387.5L552 379Z" stroke="black"/>
</g>
<path id="Brooklyn" d="M653.5 394L640 395L630 396L629 400L619 402.5L618.5 421.5L614.5 422L616 425L598 429.5L599 437L623.5 432L626 435L612.5 438V441L613.5 446H618L624.5 444L624 445.5L621.5 449V452L628.5 456V469L609.5 510L611 512L619.5 516.5H623.5L624.5 521L626.5 522.5L626 544L629.5 559L634.5 564.5L649.5 577.5V580L643.5 582L628.5 583.5V587H620.5V606.5L618.5 609V611L621.5 614H623L626.5 611H630L638.5 615H647.5L649 623H664.5L677 616L702 608.5L711.5 609L734.5 602.5L742.5 621.5L750 622.5L755 625L759 628.5L762 631.5H765L771 625L772 612L775 603V598.5L772 585L767 581L762 576L761 573L761.5 569.5L775.5 554L797.5 546V541L789 514.5V500L769 465L769.5 462.5L782.5 444L812.5 423.5L821 413.5L781.5 408H744.5L708.5 399.5L686.5 397.5L669 396.5L653.5 394Z" fill="#2A2A2A" stroke="black"/>
<g id="Ametista">
<path id="Rectangle 2" d="M146.501 529.417C145.166 528.082 145.166 525.918 146.501 524.583L157.583 513.501C158.918 512.166 161.082 512.166 162.417 513.501L173.499 524.583C174.834 525.918 174.834 528.082 173.499 529.417L162.417 540.499C161.082 541.834 158.918 541.834 157.583 540.499L146.501 529.417Z" fill="black" fill-opacity="0.9" stroke="#242424"/>
<path id="Vector" d="M143 528C143.209 533.979 149.829 533.949 153.728 536.946C151.205 535.863 147.069 536.101 144.076 534.176C145.472 538.675 150.453 537.194 154.111 538.417C151.933 538.206 149.06 539.425 146.344 538.461C148.742 542.209 151.853 539.705 154.867 539.727C153.347 540.111 151.777 541.792 149.678 541.634C152.236 544.075 153.575 541.705 155.408 540.796C155.405 540.799 155.403 540.801 155.401 540.804C155.474 540.766 155.552 540.738 155.633 540.72C155.694 540.707 155.756 540.699 155.819 540.698C156.25 540.692 156.641 540.986 156.738 541.42C156.779 541.604 156.762 541.797 156.688 541.971C156.686 541.951 156.682 541.932 156.678 541.913C156.592 541.524 156.203 541.278 155.811 541.364C155.419 541.45 155.171 541.835 155.257 542.224C155.269 542.277 155.287 542.328 155.311 542.377C155.305 542.373 155.299 542.369 155.293 542.365C155.311 542.394 155.33 542.421 155.35 542.449C155.389 542.511 155.437 542.566 155.492 542.614C155.722 542.839 156.034 542.983 156.383 542.999C157.129 543.032 157.761 542.458 157.794 541.718C157.821 541.117 157.446 540.59 156.903 540.396C156.903 540.396 156.902 540.396 156.902 540.396C156.593 540.225 156.323 540.018 156.095 539.786C156.613 540.016 157.242 539.904 157.645 539.466C158.149 538.92 158.112 538.072 157.561 537.572C157.246 537.287 156.834 537.177 156.443 537.236C156.34 537.242 156.237 537.272 156.144 537.331C155.854 537.514 155.769 537.896 155.954 538.184C156.139 538.471 156.524 538.555 156.814 538.372C156.967 538.275 157.062 538.123 157.092 537.959C157.172 538.324 157.022 538.717 156.685 538.93C156.254 539.203 155.68 539.078 155.405 538.65C155.32 538.518 155.271 538.367 155.261 538.211C155.261 538.21 155.261 538.209 155.261 538.208C155.249 538.14 155.241 538.071 155.236 538.003C154.916 533.304 147.019 532.692 143 528L143 528Z" fill="url(#paint0_linear_1_2)"/>
<path id="Vector_2" d="M177 528C176.791 533.979 170.171 533.949 166.272 536.946C168.795 535.863 172.931 536.101 175.924 534.176C174.528 538.675 169.547 537.194 165.889 538.417C168.067 538.206 170.94 539.425 173.656 538.461C171.258 542.209 168.147 539.705 165.133 539.727C166.653 540.111 168.223 541.792 170.322 541.634C167.764 544.075 166.425 541.705 164.592 540.796C164.595 540.799 164.597 540.801 164.599 540.804C164.526 540.766 164.448 540.738 164.367 540.72C164.306 540.707 164.244 540.699 164.181 540.698C163.75 540.692 163.359 540.986 163.262 541.42C163.221 541.604 163.238 541.797 163.312 541.971C163.314 541.951 163.318 541.932 163.322 541.913C163.408 541.524 163.797 541.278 164.189 541.364C164.581 541.45 164.829 541.835 164.743 542.224C164.731 542.277 164.713 542.328 164.689 542.377C164.695 542.373 164.701 542.369 164.707 542.365C164.689 542.394 164.67 542.421 164.65 542.449C164.611 542.511 164.563 542.566 164.508 542.614C164.278 542.839 163.966 542.983 163.617 542.999C162.871 543.032 162.239 542.458 162.206 541.718C162.179 541.117 162.554 540.59 163.097 540.396C163.097 540.396 163.098 540.396 163.098 540.396C163.407 540.225 163.677 540.018 163.905 539.786C163.387 540.016 162.758 539.904 162.355 539.466C161.851 538.92 161.888 538.072 162.439 537.572C162.754 537.287 163.166 537.177 163.557 537.236C163.66 537.242 163.763 537.272 163.856 537.331C164.146 537.514 164.231 537.896 164.046 538.184C163.861 538.471 163.476 538.555 163.186 538.372C163.033 538.275 162.938 538.123 162.908 537.959C162.828 538.324 162.978 538.717 163.315 538.93C163.746 539.203 164.32 539.078 164.595 538.65C164.68 538.518 164.729 538.367 164.739 538.211C164.739 538.21 164.739 538.209 164.739 538.208C164.751 538.14 164.759 538.071 164.764 538.003C165.084 533.304 172.981 532.692 177 528L177 528Z" fill="url(#paint1_linear_1_2)"/>
<path id="1" d="M157.92 533V532.697C158.408 532.697 158.773 532.613 159.014 532.443C159.261 532.274 159.385 531.942 159.385 531.447V527.209C159.385 526.675 159.329 526.288 159.219 526.047C159.115 525.799 158.945 525.643 158.711 525.578C158.483 525.513 158.18 525.48 157.803 525.48V525.178C158.525 525.165 159.121 525.096 159.59 524.973C160.059 524.849 160.475 524.644 160.84 524.357V531.447C160.84 531.962 160.954 532.3 161.182 532.463C161.41 532.619 161.748 532.697 162.197 532.697V533C162.002 532.987 161.706 532.974 161.309 532.961C160.918 532.941 160.527 532.932 160.137 532.932C159.707 532.932 159.284 532.941 158.867 532.961C158.451 532.974 158.135 532.987 157.92 533Z" fill="white"/>
<path id="Level" d="M156.875 520V519.955C156.967 519.95 157.033 519.938 157.073 519.921C157.113 519.903 157.138 519.88 157.146 519.851C157.156 519.821 157.161 519.787 157.161 519.747V518.54C157.161 518.483 157.154 518.441 157.141 518.415C157.128 518.388 157.101 518.369 157.06 518.358C157.02 518.347 156.958 518.338 156.875 518.332V518.288C156.907 518.289 156.956 518.29 157.022 518.292C157.088 518.294 157.172 518.295 157.272 518.295C157.386 518.295 157.48 518.294 157.557 518.293C157.634 518.292 157.692 518.29 157.732 518.288V518.332C157.634 518.338 157.56 518.349 157.51 518.362C157.461 518.375 157.428 518.395 157.412 518.422C157.395 518.45 157.387 518.489 157.387 518.54V519.747C157.387 519.791 157.391 519.828 157.4 519.858C157.41 519.887 157.433 519.91 157.469 519.925C157.505 519.94 157.564 519.947 157.646 519.947H157.743C157.84 519.947 157.925 519.943 157.998 519.934C158.07 519.924 158.132 519.903 158.185 519.871C158.239 519.838 158.287 519.787 158.329 519.717C158.371 519.648 158.411 519.553 158.449 519.432H158.494C158.479 519.544 158.467 519.646 158.459 519.739C158.452 519.832 158.45 519.919 158.453 520C158.364 519.998 158.264 519.997 158.151 519.996C158.04 519.994 157.909 519.993 157.757 519.993C157.563 519.993 157.392 519.994 157.243 519.996C157.096 519.997 156.973 519.998 156.875 520ZM159.284 520.034C159.171 520.034 159.073 520.007 158.989 519.953C158.905 519.899 158.84 519.825 158.793 519.729C158.746 519.633 158.723 519.523 158.723 519.399C158.723 519.195 158.774 519.031 158.876 518.907C158.98 518.782 159.122 518.72 159.303 518.72C159.402 518.72 159.489 518.746 159.562 518.799C159.636 518.852 159.693 518.92 159.733 519.004C159.773 519.088 159.792 519.176 159.791 519.269H158.958C158.958 519.28 158.957 519.295 158.957 519.314C158.957 519.532 158.992 519.693 159.061 519.798C159.131 519.902 159.23 519.955 159.358 519.955C159.44 519.955 159.516 519.935 159.585 519.896C159.655 519.857 159.709 519.793 159.75 519.704L159.789 519.752C159.751 519.846 159.687 519.917 159.597 519.963C159.508 520.01 159.404 520.034 159.284 520.034ZM159.288 518.767C159.235 518.767 159.186 518.789 159.139 518.834C159.093 518.878 159.054 518.935 159.021 519.005C158.99 519.075 158.97 519.146 158.961 519.221H159.559C159.562 519.053 159.541 518.935 159.496 518.868C159.452 518.8 159.383 518.767 159.288 518.767ZM160.587 520.031H160.545L160.132 518.944C160.099 518.855 160.036 518.808 159.943 518.802V518.755C159.977 518.756 160.013 518.757 160.05 518.758C160.087 518.759 160.135 518.759 160.195 518.759C160.274 518.759 160.334 518.759 160.376 518.759C160.418 518.759 160.462 518.758 160.508 518.755V518.802C160.445 518.802 160.402 518.817 160.381 518.847C160.359 518.876 160.364 518.933 160.396 519.017L160.647 519.687L160.835 519.08C160.854 519.021 160.868 518.972 160.877 518.932C160.887 518.892 160.881 518.861 160.86 518.84C160.838 518.817 160.79 518.805 160.715 518.802V518.755C160.775 518.758 160.819 518.76 160.845 518.761C160.872 518.761 160.904 518.761 160.943 518.761C160.985 518.761 161.023 518.761 161.058 518.761C161.092 518.761 161.122 518.759 161.147 518.755V518.802C161.076 518.818 161.016 518.864 160.968 518.939C160.92 519.014 160.875 519.119 160.832 519.256L160.587 520.031ZM161.879 520.034C161.767 520.034 161.669 520.007 161.585 519.953C161.501 519.899 161.436 519.825 161.389 519.729C161.342 519.633 161.318 519.523 161.318 519.399C161.318 519.195 161.37 519.031 161.472 518.907C161.576 518.782 161.718 518.72 161.898 518.72C161.998 518.72 162.084 518.746 162.158 518.799C162.232 518.852 162.289 518.92 162.329 519.004C162.369 519.088 162.388 519.176 162.386 519.269H161.554C161.553 519.28 161.553 519.295 161.553 519.314C161.553 519.532 161.587 519.693 161.657 519.798C161.727 519.902 161.826 519.955 161.954 519.955C162.036 519.955 162.112 519.935 162.181 519.896C162.25 519.857 162.305 519.793 162.345 519.704L162.385 519.752C162.347 519.846 162.283 519.917 162.193 519.963C162.104 520.01 162 520.034 161.879 520.034ZM161.884 518.767C161.831 518.767 161.781 518.789 161.734 518.834C161.688 518.878 161.649 518.935 161.617 519.005C161.586 519.075 161.566 519.146 161.557 519.221H162.155C162.158 519.053 162.137 518.935 162.092 518.868C162.048 518.8 161.979 518.767 161.884 518.767ZM162.577 520V519.955C162.653 519.953 162.706 519.94 162.736 519.917C162.767 519.893 162.782 519.848 162.782 519.78V518.387C162.782 518.327 162.766 518.278 162.735 518.242C162.705 518.205 162.652 518.183 162.577 518.175V518.129C162.608 518.132 162.637 518.134 162.665 518.135C162.692 518.136 162.719 518.137 162.747 518.137C162.794 518.137 162.839 518.134 162.881 518.129C162.924 518.124 162.964 518.115 163 518.103V519.78C163 519.848 163.015 519.893 163.045 519.917C163.076 519.94 163.129 519.953 163.205 519.955V520C163.175 519.998 163.13 519.996 163.07 519.994C163.011 519.991 162.951 519.99 162.892 519.99C162.832 519.99 162.772 519.991 162.713 519.994C162.653 519.996 162.608 519.998 162.577 520Z" fill="white"/>
</g>
<g id="Esmeralda">
<path id="Rectangle 2_2" d="M638.501 67.5831L649.583 56.5011C650.918 55.1663 653.082 55.1663 654.417 56.5011L665.499 67.5831C666.834 68.9179 666.834 71.0821 665.499 72.4169L654.417 83.4989C653.082 84.8337 650.918 84.8337 649.583 83.4989L638.501 72.4169C637.166 71.0821 637.166 68.9179 638.501 67.5831Z" fill="black" fill-opacity="0.9" stroke="#242424"/>
<path id="Vector_3" d="M635 71C635.209 76.9786 641.829 76.9494 645.728 79.946C643.205 78.8627 639.069 79.1008 636.076 77.1756C637.472 81.675 642.453 80.1937 646.111 81.4167C643.933 81.2058 641.06 82.4253 638.344 81.4607C640.742 85.2089 643.853 82.7053 646.867 82.7274C645.347 83.1115 643.777 84.7916 641.678 84.634C644.236 87.075 645.575 84.7046 647.408 83.7962C647.405 83.7989 647.403 83.8015 647.401 83.8042C647.474 83.7661 647.552 83.7378 647.633 83.7202C647.694 83.7067 647.756 83.6993 647.819 83.6982C648.25 83.6916 648.641 83.9863 648.738 84.4201C648.779 84.6044 648.762 84.7968 648.688 84.9709C648.686 84.9515 648.682 84.9321 648.678 84.913C648.592 84.5241 648.203 84.2782 647.811 84.3641C647.419 84.4499 647.171 84.835 647.257 85.2239C647.269 85.2767 647.287 85.328 647.311 85.3768C647.305 85.3728 647.299 85.369 647.293 85.3649C647.311 85.3937 647.33 85.4215 647.35 85.4488C647.389 85.5106 647.437 85.5662 647.492 85.6138C647.722 85.839 648.034 85.9833 648.383 85.9986C649.129 86.0317 649.761 85.458 649.794 84.718C649.821 84.1167 649.446 83.5902 648.903 83.3962C648.903 83.3961 648.902 83.3964 648.902 83.3962C648.593 83.2252 648.323 83.0176 648.095 82.7864C648.613 83.0156 649.242 82.9039 649.645 82.4665C650.149 81.9199 650.112 81.0718 649.561 80.5718C649.246 80.287 648.834 80.177 648.443 80.2359C648.34 80.2417 648.237 80.2719 648.144 80.3309C647.854 80.5144 647.769 80.8962 647.954 81.1837C648.139 81.4713 648.524 81.5552 648.814 81.3717C648.967 81.2748 649.062 81.1232 649.092 80.9588C649.172 81.3241 649.022 81.7166 648.685 81.9296C648.254 82.2027 647.68 82.0775 647.405 81.6497C647.32 81.5179 647.271 81.3668 647.261 81.2107C647.261 81.2098 647.261 81.2087 647.261 81.2078C647.249 81.1399 647.241 81.0715 647.236 81.0028C646.916 76.3043 639.019 75.6921 635 71L635 71Z" fill="url(#paint2_linear_1_2)"/>
<path id="Vector_4" d="M669 71C668.791 76.9786 662.171 76.9494 658.272 79.946C660.795 78.8627 664.931 79.1008 667.924 77.1756C666.528 81.675 661.547 80.1937 657.889 81.4167C660.067 81.2058 662.94 82.4253 665.656 81.4607C663.258 85.2089 660.147 82.7053 657.133 82.7274C658.653 83.1115 660.223 84.7916 662.322 84.634C659.764 87.075 658.425 84.7046 656.592 83.7962C656.595 83.7989 656.597 83.8015 656.599 83.8042C656.526 83.7661 656.448 83.7378 656.367 83.7202C656.306 83.7067 656.244 83.6993 656.181 83.6982C655.75 83.6916 655.359 83.9863 655.262 84.4201C655.221 84.6044 655.238 84.7968 655.312 84.9709C655.314 84.9515 655.318 84.9321 655.322 84.913C655.408 84.5241 655.797 84.2782 656.189 84.3641C656.581 84.4499 656.829 84.835 656.743 85.2239C656.731 85.2767 656.713 85.328 656.689 85.3768C656.695 85.3728 656.701 85.369 656.707 85.3649C656.689 85.3937 656.67 85.4215 656.65 85.4488C656.611 85.5106 656.563 85.5662 656.508 85.6138C656.278 85.839 655.966 85.9833 655.617 85.9986C654.871 86.0317 654.239 85.458 654.206 84.718C654.179 84.1167 654.554 83.5902 655.097 83.3962C655.097 83.3961 655.098 83.3964 655.098 83.3962C655.407 83.2252 655.677 83.0176 655.905 82.7864C655.387 83.0156 654.758 82.9039 654.355 82.4665C653.851 81.9199 653.888 81.0718 654.439 80.5718C654.754 80.287 655.166 80.177 655.557 80.2359C655.66 80.2417 655.763 80.2719 655.856 80.3309C656.146 80.5144 656.231 80.8962 656.046 81.1837C655.861 81.4713 655.476 81.5552 655.186 81.3717C655.033 81.2748 654.938 81.1232 654.908 80.9588C654.828 81.3241 654.978 81.7166 655.315 81.9296C655.746 82.2027 656.32 82.0775 656.595 81.6497C656.68 81.5179 656.729 81.3668 656.739 81.2107C656.739 81.2098 656.739 81.2087 656.739 81.2078C656.751 81.1399 656.759 81.0715 656.764 81.0028C657.084 76.3043 664.981 75.6921 669 71L669 71Z" fill="url(#paint3_linear_1_2)"/>
<path id="1_2" d="M649.92 76V75.6973C650.408 75.6973 650.773 75.6126 651.014 75.4434C651.261 75.2741 651.385 74.9421 651.385 74.4473V70.209C651.385 69.6751 651.329 69.2878 651.219 69.0469C651.115 68.7995 650.945 68.6432 650.711 68.5781C650.483 68.513 650.18 68.4805 649.803 68.4805V68.1777C650.525 68.1647 651.121 68.0964 651.59 67.9727C652.059 67.849 652.475 67.6439 652.84 67.3574V74.4473C652.84 74.9616 652.954 75.3001 653.182 75.4629C653.41 75.6191 653.748 75.6973 654.197 75.6973V76C654.002 75.987 653.706 75.974 653.309 75.9609C652.918 75.9414 652.527 75.9316 652.137 75.9316C651.707 75.9316 651.284 75.9414 650.867 75.9609C650.451 75.974 650.135 75.987 649.92 76Z" fill="white"/>
<path id="Level_2" d="M648.875 63V62.9546C648.967 62.9497 649.033 62.9385 649.073 62.9209C649.113 62.9033 649.138 62.8799 649.146 62.8506C649.156 62.8213 649.161 62.7866 649.161 62.7466V61.5396C649.161 61.4829 649.154 61.4414 649.141 61.415C649.128 61.3877 649.101 61.3687 649.06 61.3579C649.02 61.3472 648.958 61.3384 648.875 61.3315V61.2876C648.907 61.2886 648.956 61.29 649.022 61.292C649.088 61.2939 649.172 61.2949 649.272 61.2949C649.386 61.2949 649.48 61.2944 649.557 61.2935C649.634 61.2915 649.692 61.2896 649.732 61.2876V61.3315C649.634 61.3384 649.56 61.3486 649.51 61.3623C649.461 61.375 649.428 61.395 649.412 61.4224C649.395 61.4497 649.387 61.4888 649.387 61.5396V62.7466C649.387 62.7905 649.391 62.8276 649.4 62.8579C649.41 62.8872 649.433 62.9097 649.469 62.9253C649.505 62.9399 649.564 62.9473 649.646 62.9473H649.743C649.84 62.9473 649.925 62.9429 649.998 62.9341C650.07 62.9243 650.132 62.9033 650.185 62.8711C650.239 62.8379 650.287 62.7866 650.329 62.7173C650.371 62.6479 650.411 62.5527 650.449 62.4316H650.494C650.479 62.5439 650.467 62.6465 650.459 62.7393C650.452 62.832 650.45 62.9189 650.453 63C650.364 62.998 650.264 62.9966 650.151 62.9956C650.04 62.9937 649.909 62.9927 649.757 62.9927C649.563 62.9927 649.392 62.9937 649.243 62.9956C649.096 62.9966 648.973 62.998 648.875 63ZM651.284 63.0337C651.171 63.0337 651.073 63.0068 650.989 62.9531C650.905 62.8994 650.84 62.8247 650.793 62.729C650.746 62.6333 650.723 62.5234 650.723 62.3994C650.723 62.1953 650.774 62.0312 650.876 61.9072C650.98 61.7822 651.122 61.7197 651.303 61.7197C651.402 61.7197 651.489 61.7461 651.562 61.7988C651.636 61.8516 651.693 61.9199 651.733 62.0039C651.773 62.0879 651.792 62.1763 651.791 62.269H650.958C650.958 62.2798 650.957 62.2949 650.957 62.3145C650.957 62.5322 650.992 62.6934 651.061 62.7979C651.131 62.9023 651.23 62.9546 651.358 62.9546C651.44 62.9546 651.516 62.9351 651.585 62.896C651.655 62.8569 651.709 62.793 651.75 62.7041L651.789 62.7524C651.751 62.8462 651.687 62.9165 651.597 62.9634C651.508 63.0103 651.404 63.0337 651.284 63.0337ZM651.288 61.7666C651.235 61.7666 651.186 61.7891 651.139 61.834C651.093 61.8779 651.054 61.9351 651.021 62.0054C650.99 62.0747 650.97 62.1465 650.961 62.2207H651.559C651.562 62.0527 651.541 61.9351 651.496 61.8677C651.452 61.8003 651.383 61.7666 651.288 61.7666ZM652.587 63.0308H652.545L652.132 61.9438C652.099 61.855 652.036 61.8076 651.943 61.8018V61.7549C651.977 61.7559 652.013 61.7568 652.05 61.7578C652.087 61.7588 652.135 61.7593 652.195 61.7593C652.274 61.7593 652.334 61.7593 652.376 61.7593C652.418 61.7593 652.462 61.7578 652.508 61.7549V61.8018C652.445 61.8018 652.402 61.8169 652.381 61.8472C652.359 61.8765 652.364 61.9331 652.396 62.0171L652.647 62.6865L652.835 62.0801C652.854 62.0215 652.868 61.9722 652.877 61.9321C652.887 61.8921 652.881 61.8613 652.86 61.8398C652.838 61.8174 652.79 61.8047 652.715 61.8018V61.7549C652.775 61.7578 652.819 61.7598 652.845 61.7607C652.872 61.7607 652.904 61.7607 652.943 61.7607C652.985 61.7607 653.023 61.7607 653.058 61.7607C653.092 61.7607 653.122 61.7588 653.147 61.7549V61.8018C653.076 61.8184 653.016 61.8643 652.968 61.9395C652.92 62.0137 652.875 62.1191 652.832 62.2559L652.587 63.0308ZM653.879 63.0337C653.767 63.0337 653.669 63.0068 653.585 62.9531C653.501 62.8994 653.436 62.8247 653.389 62.729C653.342 62.6333 653.318 62.5234 653.318 62.3994C653.318 62.1953 653.37 62.0312 653.472 61.9072C653.576 61.7822 653.718 61.7197 653.898 61.7197C653.998 61.7197 654.084 61.7461 654.158 61.7988C654.232 61.8516 654.289 61.9199 654.329 62.0039C654.369 62.0879 654.388 62.1763 654.386 62.269H653.554C653.553 62.2798 653.553 62.2949 653.553 62.3145C653.553 62.5322 653.587 62.6934 653.657 62.7979C653.727 62.9023 653.826 62.9546 653.954 62.9546C654.036 62.9546 654.112 62.9351 654.181 62.896C654.25 62.8569 654.305 62.793 654.345 62.7041L654.385 62.7524C654.347 62.8462 654.283 62.9165 654.193 62.9634C654.104 63.0103 654 63.0337 653.879 63.0337ZM653.884 61.7666C653.831 61.7666 653.781 61.7891 653.734 61.834C653.688 61.8779 653.649 61.9351 653.617 62.0054C653.586 62.0747 653.566 62.1465 653.557 62.2207H654.155C654.158 62.0527 654.137 61.9351 654.092 61.8677C654.048 61.8003 653.979 61.7666 653.884 61.7666ZM654.577 63V62.9546C654.653 62.9526 654.706 62.9399 654.736 62.9165C654.767 62.8931 654.782 62.8477 654.782 62.7803V61.3872C654.782 61.3267 654.766 61.2783 654.735 61.2422C654.705 61.2051 654.652 61.1826 654.577 61.1748V61.1294C654.608 61.1323 654.637 61.1343 654.665 61.1353C654.692 61.1362 654.719 61.1367 654.747 61.1367C654.794 61.1367 654.839 61.1343 654.881 61.1294C654.924 61.1235 654.964 61.1147 655 61.103V62.7803C655 62.8477 655.015 62.8931 655.045 62.9165C655.076 62.9399 655.129 62.9526 655.205 62.9546V63C655.175 62.998 655.13 62.9961 655.07 62.9941C655.011 62.9912 654.951 62.9897 654.892 62.9897C654.832 62.9897 654.772 62.9912 654.713 62.9941C654.653 62.9961 654.608 62.998 654.577 63Z" fill="white"/>
</g>
<g id="Bronze">
<path id="Rectangle 2_3" d="M839.501 315.583L850.583 304.501C851.918 303.166 854.082 303.166 855.417 304.501L866.499 315.583C867.834 316.918 867.834 319.082 866.499 320.417L855.417 331.499C854.082 332.834 851.918 332.834 850.583 331.499L839.501 320.417C838.166 319.082 838.166 316.918 839.501 315.583Z" fill="black" fill-opacity="0.9" stroke="#242424"/>
<path id="1_3" d="M850.92 323V322.697C851.408 322.697 851.773 322.613 852.014 322.443C852.261 322.274 852.385 321.942 852.385 321.447V317.209C852.385 316.675 852.329 316.288 852.219 316.047C852.115 315.799 851.945 315.643 851.711 315.578C851.483 315.513 851.18 315.48 850.803 315.48V315.178C851.525 315.165 852.121 315.096 852.59 314.973C853.059 314.849 853.475 314.644 853.84 314.357V321.447C853.84 321.962 853.954 322.3 854.182 322.463C854.41 322.619 854.748 322.697 855.197 322.697V323C855.002 322.987 854.706 322.974 854.309 322.961C853.918 322.941 853.527 322.932 853.137 322.932C852.707 322.932 852.284 322.941 851.867 322.961C851.451 322.974 851.135 322.987 850.92 323Z" fill="white"/>
<path id="Level_3" d="M849.875 310V309.955C849.967 309.95 850.033 309.938 850.073 309.921C850.113 309.903 850.138 309.88 850.146 309.851C850.156 309.821 850.161 309.787 850.161 309.747V308.54C850.161 308.483 850.154 308.441 850.141 308.415C850.128 308.388 850.101 308.369 850.06 308.358C850.02 308.347 849.958 308.338 849.875 308.332V308.288C849.907 308.289 849.956 308.29 850.022 308.292C850.088 308.294 850.172 308.295 850.272 308.295C850.386 308.295 850.48 308.294 850.557 308.293C850.634 308.292 850.692 308.29 850.732 308.288V308.332C850.634 308.338 850.56 308.349 850.51 308.362C850.461 308.375 850.428 308.395 850.412 308.422C850.395 308.45 850.387 308.489 850.387 308.54V309.747C850.387 309.791 850.391 309.828 850.4 309.858C850.41 309.887 850.433 309.91 850.469 309.925C850.505 309.94 850.564 309.947 850.646 309.947H850.743C850.84 309.947 850.925 309.943 850.998 309.934C851.07 309.924 851.132 309.903 851.185 309.871C851.239 309.838 851.287 309.787 851.329 309.717C851.371 309.648 851.411 309.553 851.449 309.432H851.494C851.479 309.544 851.467 309.646 851.459 309.739C851.452 309.832 851.45 309.919 851.453 310C851.364 309.998 851.264 309.997 851.151 309.996C851.04 309.994 850.909 309.993 850.757 309.993C850.563 309.993 850.392 309.994 850.243 309.996C850.096 309.997 849.973 309.998 849.875 310ZM852.284 310.034C852.171 310.034 852.073 310.007 851.989 309.953C851.905 309.899 851.84 309.825 851.793 309.729C851.746 309.633 851.723 309.523 851.723 309.399C851.723 309.195 851.774 309.031 851.876 308.907C851.98 308.782 852.122 308.72 852.303 308.72C852.402 308.72 852.489 308.746 852.562 308.799C852.636 308.852 852.693 308.92 852.733 309.004C852.773 309.088 852.792 309.176 852.791 309.269H851.958C851.958 309.28 851.957 309.295 851.957 309.314C851.957 309.532 851.992 309.693 852.061 309.798C852.131 309.902 852.23 309.955 852.358 309.955C852.44 309.955 852.516 309.935 852.585 309.896C852.655 309.857 852.709 309.793 852.75 309.704L852.789 309.752C852.751 309.846 852.687 309.917 852.597 309.963C852.508 310.01 852.404 310.034 852.284 310.034ZM852.288 308.767C852.235 308.767 852.186 308.789 852.139 308.834C852.093 308.878 852.054 308.935 852.021 309.005C851.99 309.075 851.97 309.146 851.961 309.221H852.559C852.562 309.053 852.541 308.935 852.496 308.868C852.452 308.8 852.383 308.767 852.288 308.767ZM853.587 310.031H853.545L853.132 308.944C853.099 308.855 853.036 308.808 852.943 308.802V308.755C852.977 308.756 853.013 308.757 853.05 308.758C853.087 308.759 853.135 308.759 853.195 308.759C853.274 308.759 853.334 308.759 853.376 308.759C853.418 308.759 853.462 308.758 853.508 308.755V308.802C853.445 308.802 853.402 308.817 853.381 308.847C853.359 308.876 853.364 308.933 853.396 309.017L853.647 309.687L853.835 309.08C853.854 309.021 853.868 308.972 853.877 308.932C853.887 308.892 853.881 308.861 853.86 308.84C853.838 308.817 853.79 308.805 853.715 308.802V308.755C853.775 308.758 853.819 308.76 853.845 308.761C853.872 308.761 853.904 308.761 853.943 308.761C853.985 308.761 854.023 308.761 854.058 308.761C854.092 308.761 854.122 308.759 854.147 308.755V308.802C854.076 308.818 854.016 308.864 853.968 308.939C853.92 309.014 853.875 309.119 853.832 309.256L853.587 310.031ZM854.879 310.034C854.767 310.034 854.669 310.007 854.585 309.953C854.501 309.899 854.436 309.825 854.389 309.729C854.342 309.633 854.318 309.523 854.318 309.399C854.318 309.195 854.37 309.031 854.472 308.907C854.576 308.782 854.718 308.72 854.898 308.72C854.998 308.72 855.084 308.746 855.158 308.799C855.232 308.852 855.289 308.92 855.329 309.004C855.369 309.088 855.388 309.176 855.386 309.269H854.554C854.553 309.28 854.553 309.295 854.553 309.314C854.553 309.532 854.587 309.693 854.657 309.798C854.727 309.902 854.826 309.955 854.954 309.955C855.036 309.955 855.112 309.935 855.181 309.896C855.25 309.857 855.305 309.793 855.345 309.704L855.385 309.752C855.347 309.846 855.283 309.917 855.193 309.963C855.104 310.01 855 310.034 854.879 310.034ZM854.884 308.767C854.831 308.767 854.781 308.789 854.734 308.834C854.688 308.878 854.649 308.935 854.617 309.005C854.586 309.075 854.566 309.146 854.557 309.221H855.155C855.158 309.053 855.137 308.935 855.092 308.868C855.048 308.8 854.979 308.767 854.884 308.767ZM855.577 310V309.955C855.653 309.953 855.706 309.94 855.736 309.917C855.767 309.893 855.782 309.848 855.782 309.78V308.387C855.782 308.327 855.766 308.278 855.735 308.242C855.705 308.205 855.652 308.183 855.577 308.175V308.129C855.608 308.132 855.637 308.134 855.665 308.135C855.692 308.136 855.719 308.137 855.747 308.137C855.794 308.137 855.839 308.134 855.881 308.129C855.924 308.124 855.964 308.115 856 308.103V309.78C856 309.848 856.015 309.893 856.045 309.917C856.076 309.94 856.129 309.953 856.205 309.955V310C856.175 309.998 856.13 309.996 856.07 309.994C856.011 309.991 855.951 309.99 855.892 309.99C855.832 309.99 855.772 309.991 855.713 309.994C855.653 309.996 855.608 309.998 855.577 310Z" fill="white"/>
<path id="Vector_5" d="M836 319C836.209 324.979 842.829 324.949 846.728 327.946C844.205 326.863 840.069 327.101 837.076 325.176C838.472 329.675 843.453 328.194 847.111 329.417C844.933 329.206 842.06 330.425 839.344 329.461C841.742 333.209 844.853 330.705 847.867 330.727C846.347 331.111 844.777 332.792 842.678 332.634C845.236 335.075 846.575 332.705 848.408 331.796C848.405 331.799 848.403 331.801 848.401 331.804C848.474 331.766 848.552 331.738 848.633 331.72C848.694 331.707 848.756 331.699 848.819 331.698C849.25 331.692 849.641 331.986 849.738 332.42C849.779 332.604 849.762 332.797 849.688 332.971C849.686 332.951 849.682 332.932 849.678 332.913C849.592 332.524 849.203 332.278 848.811 332.364C848.419 332.45 848.171 332.835 848.257 333.224C848.269 333.277 848.287 333.328 848.311 333.377C848.305 333.373 848.299 333.369 848.293 333.365C848.311 333.394 848.33 333.421 848.35 333.449C848.389 333.511 848.437 333.566 848.492 333.614C848.722 333.839 849.034 333.983 849.383 333.999C850.129 334.032 850.761 333.458 850.794 332.718C850.821 332.117 850.446 331.59 849.903 331.396C849.903 331.396 849.902 331.396 849.902 331.396C849.593 331.225 849.323 331.018 849.095 330.786C849.613 331.016 850.242 330.904 850.645 330.466C851.149 329.92 851.112 329.072 850.561 328.572C850.246 328.287 849.834 328.177 849.443 328.236C849.34 328.242 849.237 328.272 849.144 328.331C848.854 328.514 848.769 328.896 848.954 329.184C849.139 329.471 849.524 329.555 849.814 329.372C849.967 329.275 850.062 329.123 850.092 328.959C850.172 329.324 850.022 329.717 849.685 329.93C849.254 330.203 848.68 330.078 848.405 329.65C848.32 329.518 848.271 329.367 848.261 329.211C848.261 329.21 848.261 329.209 848.261 329.208C848.249 329.14 848.241 329.071 848.236 329.003C847.916 324.304 840.019 323.692 836 319L836 319Z" fill="url(#paint4_linear_1_2)"/>
<path id="Vector_6" d="M870 319C869.791 324.979 863.171 324.949 859.272 327.946C861.795 326.863 865.931 327.101 868.924 325.176C867.528 329.675 862.547 328.194 858.889 329.417C861.067 329.206 863.94 330.425 866.656 329.461C864.258 333.209 861.147 330.705 858.133 330.727C859.653 331.111 861.223 332.792 863.322 332.634C860.764 335.075 859.425 332.705 857.592 331.796C857.595 331.799 857.597 331.801 857.599 331.804C857.526 331.766 857.448 331.738 857.367 331.72C857.306 331.707 857.244 331.699 857.181 331.698C856.75 331.692 856.359 331.986 856.262 332.42C856.221 332.604 856.238 332.797 856.312 332.971C856.314 332.951 856.318 332.932 856.322 332.913C856.408 332.524 856.797 332.278 857.189 332.364C857.581 332.45 857.829 332.835 857.743 333.224C857.731 333.277 857.713 333.328 857.689 333.377C857.695 333.373 857.701 333.369 857.707 333.365C857.689 333.394 857.67 333.421 857.65 333.449C857.611 333.511 857.563 333.566 857.508 333.614C857.278 333.839 856.966 333.983 856.617 333.999C855.871 334.032 855.239 333.458 855.206 332.718C855.179 332.117 855.554 331.59 856.097 331.396C856.097 331.396 856.098 331.396 856.098 331.396C856.407 331.225 856.677 331.018 856.905 330.786C856.387 331.016 855.758 330.904 855.355 330.466C854.851 329.92 854.888 329.072 855.439 328.572C855.754 328.287 856.166 328.177 856.557 328.236C856.66 328.242 856.763 328.272 856.856 328.331C857.146 328.514 857.231 328.896 857.046 329.184C856.861 329.471 856.476 329.555 856.186 329.372C856.033 329.275 855.938 329.123 855.908 328.959C855.828 329.324 855.978 329.717 856.315 329.93C856.746 330.203 857.32 330.078 857.595 329.65C857.68 329.518 857.729 329.367 857.739 329.211C857.739 329.21 857.739 329.209 857.739 329.208C857.751 329.14 857.759 329.071 857.764 329.003C858.084 324.304 865.981 323.692 870 319L870 319Z" fill="url(#paint5_linear_1_2)"/>
</g>
<g id="Prata">
<path id="Rectangle 2_4" d="M696.501 502.583L707.583 491.501C708.918 490.166 711.082 490.166 712.417 491.501L723.499 502.583C724.834 503.918 724.834 506.082 723.499 507.417L712.417 518.499C711.082 519.834 708.918 519.834 707.583 518.499L696.501 507.417C695.166 506.082 695.166 503.918 696.501 502.583Z" fill="black" fill-opacity="0.9" stroke="#242424"/>
<path id="Vector_7" d="M693 506C693.209 511.979 699.829 511.949 703.728 514.946C701.205 513.863 697.069 514.101 694.076 512.176C695.472 516.675 700.453 515.194 704.111 516.417C701.933 516.206 699.06 517.425 696.344 516.461C698.742 520.209 701.853 517.705 704.867 517.727C703.347 518.111 701.777 519.792 699.678 519.634C702.236 522.075 703.575 519.705 705.408 518.796C705.405 518.799 705.403 518.801 705.401 518.804C705.474 518.766 705.552 518.738 705.633 518.72C705.694 518.707 705.756 518.699 705.819 518.698C706.25 518.692 706.641 518.986 706.738 519.42C706.779 519.604 706.762 519.797 706.688 519.971C706.686 519.951 706.682 519.932 706.678 519.913C706.592 519.524 706.203 519.278 705.811 519.364C705.419 519.45 705.171 519.835 705.257 520.224C705.269 520.277 705.287 520.328 705.311 520.377C705.305 520.373 705.299 520.369 705.293 520.365C705.311 520.394 705.33 520.421 705.35 520.449C705.389 520.511 705.437 520.566 705.492 520.614C705.722 520.839 706.034 520.983 706.383 520.999C707.129 521.032 707.761 520.458 707.794 519.718C707.821 519.117 707.446 518.59 706.903 518.396C706.903 518.396 706.902 518.396 706.902 518.396C706.593 518.225 706.323 518.018 706.095 517.786C706.613 518.016 707.242 517.904 707.645 517.466C708.149 516.92 708.112 516.072 707.561 515.572C707.246 515.287 706.834 515.177 706.443 515.236C706.34 515.242 706.237 515.272 706.144 515.331C705.854 515.514 705.769 515.896 705.954 516.184C706.139 516.471 706.524 516.555 706.814 516.372C706.967 516.275 707.062 516.123 707.092 515.959C707.172 516.324 707.022 516.717 706.685 516.93C706.254 517.203 705.68 517.078 705.405 516.65C705.32 516.518 705.271 516.367 705.261 516.211C705.261 516.21 705.261 516.209 705.261 516.208C705.249 516.14 705.241 516.071 705.236 516.003C704.916 511.304 697.019 510.692 693 506L693 506Z" fill="url(#paint6_linear_1_2)"/>
<path id="Vector_8" d="M727 506C726.791 511.979 720.171 511.949 716.272 514.946C718.795 513.863 722.931 514.101 725.924 512.176C724.528 516.675 719.547 515.194 715.889 516.417C718.067 516.206 720.94 517.425 723.656 516.461C721.258 520.209 718.147 517.705 715.133 517.727C716.653 518.111 718.223 519.792 720.322 519.634C717.764 522.075 716.425 519.705 714.592 518.796C714.595 518.799 714.597 518.801 714.599 518.804C714.526 518.766 714.448 518.738 714.367 518.72C714.306 518.707 714.244 518.699 714.181 518.698C713.75 518.692 713.359 518.986 713.262 519.42C713.221 519.604 713.238 519.797 713.312 519.971C713.314 519.951 713.318 519.932 713.322 519.913C713.408 519.524 713.797 519.278 714.189 519.364C714.581 519.45 714.829 519.835 714.743 520.224C714.731 520.277 714.713 520.328 714.689 520.377C714.695 520.373 714.701 520.369 714.707 520.365C714.689 520.394 714.67 520.421 714.65 520.449C714.611 520.511 714.563 520.566 714.508 520.614C714.278 520.839 713.966 520.983 713.617 520.999C712.871 521.032 712.239 520.458 712.206 519.718C712.179 519.117 712.554 518.59 713.097 518.396C713.097 518.396 713.098 518.396 713.098 518.396C713.407 518.225 713.677 518.018 713.905 517.786C713.387 518.016 712.758 517.904 712.355 517.466C711.851 516.92 711.888 516.072 712.439 515.572C712.754 515.287 713.166 515.177 713.557 515.236C713.66 515.242 713.763 515.272 713.856 515.331C714.146 515.514 714.231 515.896 714.046 516.184C713.861 516.471 713.476 516.555 713.186 516.372C713.033 516.275 712.938 516.123 712.908 515.959C712.828 516.324 712.978 516.717 713.315 516.93C713.746 517.203 714.32 517.078 714.595 516.65C714.68 516.518 714.729 516.367 714.739 516.211C714.739 516.21 714.739 516.209 714.739 516.208C714.751 516.14 714.759 516.071 714.764 516.003C715.084 511.304 722.981 510.692 727 506L727 506Z" fill="url(#paint7_linear_1_2)"/>
<path id="2" d="M712.822 511.078C712.751 511.046 712.601 511.023 712.373 511.01C712.145 511.003 711.937 511 711.748 511H707.188V510.717C707.767 510.092 708.317 509.483 708.838 508.891C709.365 508.292 709.792 507.657 710.117 506.986C710.449 506.316 710.615 505.561 710.615 504.721C710.615 504.083 710.508 503.624 710.293 503.344C710.078 503.064 709.785 502.924 709.414 502.924C709.056 502.924 708.757 502.999 708.516 503.148C708.281 503.292 708.164 503.458 708.164 503.646C708.164 503.77 708.216 503.894 708.32 504.018C708.431 504.135 708.538 504.265 708.643 504.408C708.753 504.551 708.809 504.721 708.809 504.916C708.809 505.157 708.724 505.333 708.555 505.443C708.385 505.554 708.197 505.609 707.988 505.609C707.747 505.609 707.552 505.535 707.402 505.385C707.253 505.235 707.178 505.007 707.178 504.701C707.178 504.298 707.301 503.926 707.549 503.588C707.803 503.249 708.145 502.979 708.574 502.777C709.004 502.569 709.486 502.465 710.02 502.465C710.677 502.465 711.198 502.641 711.582 502.992C711.973 503.337 712.168 503.839 712.168 504.496C712.168 505.121 711.982 505.704 711.611 506.244C711.247 506.778 710.778 507.322 710.205 507.875C709.639 508.422 709.049 509.031 708.438 509.701V509.76H711.377C712.067 509.76 712.435 509.428 712.48 508.764H712.754C712.76 509.428 712.767 509.91 712.773 510.209C712.78 510.508 712.796 510.798 712.822 511.078Z" fill="white"/>
<path id="Level_4" d="M706.875 498V497.955C706.967 497.95 707.033 497.938 707.073 497.921C707.113 497.903 707.138 497.88 707.146 497.851C707.156 497.821 707.161 497.787 707.161 497.747V496.54C707.161 496.483 707.154 496.441 707.141 496.415C707.128 496.388 707.101 496.369 707.06 496.358C707.02 496.347 706.958 496.338 706.875 496.332V496.288C706.907 496.289 706.956 496.29 707.022 496.292C707.088 496.294 707.172 496.295 707.272 496.295C707.386 496.295 707.48 496.294 707.557 496.293C707.634 496.292 707.692 496.29 707.732 496.288V496.332C707.634 496.338 707.56 496.349 707.51 496.362C707.461 496.375 707.428 496.395 707.412 496.422C707.395 496.45 707.387 496.489 707.387 496.54V497.747C707.387 497.791 707.391 497.828 707.4 497.858C707.41 497.887 707.433 497.91 707.469 497.925C707.505 497.94 707.564 497.947 707.646 497.947H707.743C707.84 497.947 707.925 497.943 707.998 497.934C708.07 497.924 708.132 497.903 708.185 497.871C708.239 497.838 708.287 497.787 708.329 497.717C708.371 497.648 708.411 497.553 708.449 497.432H708.494C708.479 497.544 708.467 497.646 708.459 497.739C708.452 497.832 708.45 497.919 708.453 498C708.364 497.998 708.264 497.997 708.151 497.996C708.04 497.994 707.909 497.993 707.757 497.993C707.563 497.993 707.392 497.994 707.243 497.996C707.096 497.997 706.973 497.998 706.875 498ZM709.284 498.034C709.171 498.034 709.073 498.007 708.989 497.953C708.905 497.899 708.84 497.825 708.793 497.729C708.746 497.633 708.723 497.523 708.723 497.399C708.723 497.195 708.774 497.031 708.876 496.907C708.98 496.782 709.122 496.72 709.303 496.72C709.402 496.72 709.489 496.746 709.562 496.799C709.636 496.852 709.693 496.92 709.733 497.004C709.773 497.088 709.792 497.176 709.791 497.269H708.958C708.958 497.28 708.957 497.295 708.957 497.314C708.957 497.532 708.992 497.693 709.061 497.798C709.131 497.902 709.23 497.955 709.358 497.955C709.44 497.955 709.516 497.935 709.585 497.896C709.655 497.857 709.709 497.793 709.75 497.704L709.789 497.752C709.751 497.846 709.687 497.917 709.597 497.963C709.508 498.01 709.404 498.034 709.284 498.034ZM709.288 496.767C709.235 496.767 709.186 496.789 709.139 496.834C709.093 496.878 709.054 496.935 709.021 497.005C708.99 497.075 708.97 497.146 708.961 497.221H709.559C709.562 497.053 709.541 496.935 709.496 496.868C709.452 496.8 709.383 496.767 709.288 496.767ZM710.587 498.031H710.545L710.132 496.944C710.099 496.855 710.036 496.808 709.943 496.802V496.755C709.977 496.756 710.013 496.757 710.05 496.758C710.087 496.759 710.135 496.759 710.195 496.759C710.274 496.759 710.334 496.759 710.376 496.759C710.418 496.759 710.462 496.758 710.508 496.755V496.802C710.445 496.802 710.402 496.817 710.381 496.847C710.359 496.876 710.364 496.933 710.396 497.017L710.647 497.687L710.835 497.08C710.854 497.021 710.868 496.972 710.877 496.932C710.887 496.892 710.881 496.861 710.86 496.84C710.838 496.817 710.79 496.805 710.715 496.802V496.755C710.775 496.758 710.819 496.76 710.845 496.761C710.872 496.761 710.904 496.761 710.943 496.761C710.985 496.761 711.023 496.761 711.058 496.761C711.092 496.761 711.122 496.759 711.147 496.755V496.802C711.076 496.818 711.016 496.864 710.968 496.939C710.92 497.014 710.875 497.119 710.832 497.256L710.587 498.031ZM711.879 498.034C711.767 498.034 711.669 498.007 711.585 497.953C711.501 497.899 711.436 497.825 711.389 497.729C711.342 497.633 711.318 497.523 711.318 497.399C711.318 497.195 711.37 497.031 711.472 496.907C711.576 496.782 711.718 496.72 711.898 496.72C711.998 496.72 712.084 496.746 712.158 496.799C712.232 496.852 712.289 496.92 712.329 497.004C712.369 497.088 712.388 497.176 712.386 497.269H711.554C711.553 497.28 711.553 497.295 711.553 497.314C711.553 497.532 711.587 497.693 711.657 497.798C711.727 497.902 711.826 497.955 711.954 497.955C712.036 497.955 712.112 497.935 712.181 497.896C712.25 497.857 712.305 497.793 712.345 497.704L712.385 497.752C712.347 497.846 712.283 497.917 712.193 497.963C712.104 498.01 712 498.034 711.879 498.034ZM711.884 496.767C711.831 496.767 711.781 496.789 711.734 496.834C711.688 496.878 711.649 496.935 711.617 497.005C711.586 497.075 711.566 497.146 711.557 497.221H712.155C712.158 497.053 712.137 496.935 712.092 496.868C712.048 496.8 711.979 496.767 711.884 496.767ZM712.577 498V497.955C712.653 497.953 712.706 497.94 712.736 497.917C712.767 497.893 712.782 497.848 712.782 497.78V496.387C712.782 496.327 712.766 496.278 712.735 496.242C712.705 496.205 712.652 496.183 712.577 496.175V496.129C712.608 496.132 712.637 496.134 712.665 496.135C712.692 496.136 712.719 496.137 712.747 496.137C712.794 496.137 712.839 496.134 712.881 496.129C712.924 496.124 712.964 496.115 713 496.103V497.78C713 497.848 713.015 497.893 713.045 497.917C713.076 497.94 713.129 497.953 713.205 497.955V498C713.175 497.998 713.13 497.996 713.07 497.994C713.011 497.991 712.951 497.99 712.892 497.99C712.832 497.99 712.772 497.991 712.713 497.994C712.653 497.996 712.608 497.998 712.577 498Z" fill="white"/>
</g>
<g id="Ouro">
<path id="Rectangle 2_5" d="M190.501 240.583L201.583 229.501C202.918 228.166 205.082 228.166 206.417 229.501L217.499 240.583C218.834 241.918 218.834 244.082 217.499 245.417L206.417 256.499C205.082 257.834 202.918 257.834 201.583 256.499L190.501 245.417C189.166 244.082 189.166 241.918 190.501 240.583Z" fill="black" fill-opacity="0.9" stroke="#242424"/>
<path id="Vector_9" d="M187 244C187.209 249.979 193.829 249.949 197.728 252.946C195.205 251.863 191.069 252.101 188.076 250.176C189.472 254.675 194.453 253.194 198.111 254.417C195.933 254.206 193.06 255.425 190.344 254.461C192.742 258.209 195.853 255.705 198.867 255.727C197.347 256.111 195.777 257.792 193.678 257.634C196.236 260.075 197.575 257.705 199.408 256.796C199.405 256.799 199.403 256.801 199.401 256.804C199.474 256.766 199.552 256.738 199.633 256.72C199.694 256.707 199.756 256.699 199.819 256.698C200.25 256.692 200.641 256.986 200.738 257.42C200.779 257.604 200.762 257.797 200.688 257.971C200.686 257.951 200.682 257.932 200.678 257.913C200.592 257.524 200.203 257.278 199.811 257.364C199.419 257.45 199.171 257.835 199.257 258.224C199.269 258.277 199.287 258.328 199.311 258.377C199.305 258.373 199.299 258.369 199.293 258.365C199.311 258.394 199.33 258.421 199.35 258.449C199.389 258.511 199.437 258.566 199.492 258.614C199.722 258.839 200.034 258.983 200.383 258.999C201.129 259.032 201.761 258.458 201.794 257.718C201.821 257.117 201.446 256.59 200.903 256.396C200.903 256.396 200.902 256.396 200.902 256.396C200.593 256.225 200.323 256.018 200.095 255.786C200.613 256.016 201.242 255.904 201.645 255.466C202.149 254.92 202.112 254.072 201.561 253.572C201.246 253.287 200.834 253.177 200.443 253.236C200.34 253.242 200.237 253.272 200.144 253.331C199.854 253.514 199.769 253.896 199.954 254.184C200.139 254.471 200.524 254.555 200.814 254.372C200.967 254.275 201.062 254.123 201.092 253.959C201.172 254.324 201.022 254.717 200.685 254.93C200.254 255.203 199.68 255.078 199.405 254.65C199.32 254.518 199.271 254.367 199.261 254.211C199.261 254.21 199.261 254.209 199.261 254.208C199.249 254.14 199.241 254.071 199.236 254.003C198.916 249.304 191.019 248.692 187 244L187 244Z" fill="url(#paint8_linear_1_2)"/>
<path id="Vector_10" d="M221 244C220.791 249.979 214.171 249.949 210.272 252.946C212.795 251.863 216.931 252.101 219.924 250.176C218.528 254.675 213.547 253.194 209.889 254.417C212.067 254.206 214.94 255.425 217.656 254.461C215.258 258.209 212.147 255.705 209.133 255.727C210.653 256.111 212.223 257.792 214.322 257.634C211.764 260.075 210.425 257.705 208.592 256.796C208.595 256.799 208.597 256.801 208.599 256.804C208.526 256.766 208.448 256.738 208.367 256.72C208.306 256.707 208.244 256.699 208.181 256.698C207.75 256.692 207.359 256.986 207.262 257.42C207.221 257.604 207.238 257.797 207.312 257.971C207.314 257.951 207.318 257.932 207.322 257.913C207.408 257.524 207.797 257.278 208.189 257.364C208.581 257.45 208.829 257.835 208.743 258.224C208.731 258.277 208.713 258.328 208.689 258.377C208.695 258.373 208.701 258.369 208.707 258.365C208.689 258.394 208.67 258.421 208.65 258.449C208.611 258.511 208.563 258.566 208.508 258.614C208.278 258.839 207.966 258.983 207.617 258.999C206.871 259.032 206.239 258.458 206.206 257.718C206.179 257.117 206.554 256.59 207.097 256.396C207.097 256.396 207.098 256.396 207.098 256.396C207.407 256.225 207.677 256.018 207.905 255.786C207.387 256.016 206.758 255.904 206.355 255.466C205.851 254.92 205.888 254.072 206.439 253.572C206.754 253.287 207.166 253.177 207.557 253.236C207.66 253.242 207.763 253.272 207.856 253.331C208.146 253.514 208.231 253.896 208.046 254.184C207.861 254.471 207.476 254.555 207.186 254.372C207.033 254.275 206.938 254.123 206.908 253.959C206.828 254.324 206.978 254.717 207.315 254.93C207.746 255.203 208.32 255.078 208.595 254.65C208.68 254.518 208.729 254.367 208.739 254.211C208.739 254.21 208.739 254.209 208.739 254.208C208.751 254.14 208.759 254.071 208.764 254.003C209.084 249.304 216.981 248.692 221 244L221 244Z" fill="url(#paint9_linear_1_2)"/>
<path id="3" d="M203.668 251.422C202.919 251.422 202.291 251.266 201.783 250.953C201.282 250.641 201.031 250.253 201.031 249.791C201.031 249.531 201.106 249.322 201.256 249.166C201.406 249.01 201.604 248.932 201.852 248.932C202.314 248.932 202.545 249.146 202.545 249.576C202.545 249.785 202.496 249.973 202.398 250.143C202.307 250.312 202.262 250.471 202.262 250.621C202.262 250.895 202.564 251.031 203.17 251.031C203.886 251.031 204.436 250.813 204.82 250.377C205.211 249.947 205.406 249.339 205.406 248.551C205.406 247.392 204.973 246.546 204.107 246.012C203.951 246.044 203.805 246.08 203.668 246.119C203.538 246.158 203.424 246.178 203.326 246.178C203.111 246.178 203.004 246.09 203.004 245.914C203.004 245.738 203.137 245.65 203.404 245.65C203.482 245.65 203.58 245.66 203.697 245.68C203.814 245.699 203.948 245.719 204.098 245.738C204.859 245.1 205.24 244.267 205.24 243.238C205.24 242.529 205.081 241.972 204.762 241.568C204.443 241.165 204.01 240.963 203.463 240.963C203.124 240.963 202.835 241.028 202.594 241.158C202.359 241.282 202.242 241.435 202.242 241.617C202.242 241.741 202.294 241.865 202.398 241.988C202.509 242.112 202.617 242.242 202.721 242.379C202.831 242.516 202.887 242.675 202.887 242.857C202.887 243.066 202.809 243.238 202.652 243.375C202.503 243.505 202.304 243.57 202.057 243.57C201.809 243.57 201.611 243.495 201.461 243.346C201.311 243.189 201.236 242.975 201.236 242.701C201.236 242.298 201.373 241.926 201.646 241.588C201.926 241.249 202.294 240.979 202.75 240.777C203.206 240.569 203.701 240.465 204.234 240.465C205.009 240.465 205.631 240.686 206.1 241.129C206.568 241.565 206.803 242.141 206.803 242.857C206.803 243.482 206.591 244.059 206.168 244.586C205.751 245.113 205.156 245.553 204.381 245.904C205.143 246.015 205.764 246.321 206.246 246.822C206.728 247.324 206.969 247.916 206.969 248.6C206.969 249.433 206.66 250.11 206.041 250.631C205.429 251.158 204.638 251.422 203.668 251.422Z" fill="white"/>
<path id="Level_5" d="M200.875 236V235.955C200.967 235.95 201.033 235.938 201.073 235.921C201.113 235.903 201.138 235.88 201.146 235.851C201.156 235.821 201.161 235.787 201.161 235.747V234.54C201.161 234.483 201.154 234.441 201.141 234.415C201.128 234.388 201.101 234.369 201.06 234.358C201.02 234.347 200.958 234.338 200.875 234.332V234.288C200.907 234.289 200.956 234.29 201.022 234.292C201.088 234.294 201.172 234.295 201.272 234.295C201.386 234.295 201.48 234.294 201.557 234.293C201.634 234.292 201.692 234.29 201.732 234.288V234.332C201.634 234.338 201.56 234.349 201.51 234.362C201.461 234.375 201.428 234.395 201.412 234.422C201.395 234.45 201.387 234.489 201.387 234.54V235.747C201.387 235.791 201.391 235.828 201.4 235.858C201.41 235.887 201.433 235.91 201.469 235.925C201.505 235.94 201.564 235.947 201.646 235.947H201.743C201.84 235.947 201.925 235.943 201.998 235.934C202.07 235.924 202.132 235.903 202.185 235.871C202.239 235.838 202.287 235.787 202.329 235.717C202.371 235.648 202.411 235.553 202.449 235.432H202.494C202.479 235.544 202.467 235.646 202.459 235.739C202.452 235.832 202.45 235.919 202.453 236C202.364 235.998 202.264 235.997 202.151 235.996C202.04 235.994 201.909 235.993 201.757 235.993C201.563 235.993 201.392 235.994 201.243 235.996C201.096 235.997 200.973 235.998 200.875 236ZM203.284 236.034C203.171 236.034 203.073 236.007 202.989 235.953C202.905 235.899 202.84 235.825 202.793 235.729C202.746 235.633 202.723 235.523 202.723 235.399C202.723 235.195 202.774 235.031 202.876 234.907C202.98 234.782 203.122 234.72 203.303 234.72C203.402 234.72 203.489 234.746 203.562 234.799C203.636 234.852 203.693 234.92 203.733 235.004C203.773 235.088 203.792 235.176 203.791 235.269H202.958C202.958 235.28 202.957 235.295 202.957 235.314C202.957 235.532 202.992 235.693 203.061 235.798C203.131 235.902 203.23 235.955 203.358 235.955C203.44 235.955 203.516 235.935 203.585 235.896C203.655 235.857 203.709 235.793 203.75 235.704L203.789 235.752C203.751 235.846 203.687 235.917 203.597 235.963C203.508 236.01 203.404 236.034 203.284 236.034ZM203.288 234.767C203.235 234.767 203.186 234.789 203.139 234.834C203.093 234.878 203.054 234.935 203.021 235.005C202.99 235.075 202.97 235.146 202.961 235.221H203.559C203.562 235.053 203.541 234.935 203.496 234.868C203.452 234.8 203.383 234.767 203.288 234.767ZM204.587 236.031H204.545L204.132 234.944C204.099 234.855 204.036 234.808 203.943 234.802V234.755C203.977 234.756 204.013 234.757 204.05 234.758C204.087 234.759 204.135 234.759 204.195 234.759C204.274 234.759 204.334 234.759 204.376 234.759C204.418 234.759 204.462 234.758 204.508 234.755V234.802C204.445 234.802 204.402 234.817 204.381 234.847C204.359 234.876 204.364 234.933 204.396 235.017L204.647 235.687L204.835 235.08C204.854 235.021 204.868 234.972 204.877 234.932C204.887 234.892 204.881 234.861 204.86 234.84C204.838 234.817 204.79 234.805 204.715 234.802V234.755C204.775 234.758 204.819 234.76 204.845 234.761C204.872 234.761 204.904 234.761 204.943 234.761C204.985 234.761 205.023 234.761 205.058 234.761C205.092 234.761 205.122 234.759 205.147 234.755V234.802C205.076 234.818 205.016 234.864 204.968 234.939C204.92 235.014 204.875 235.119 204.832 235.256L204.587 236.031ZM205.879 236.034C205.767 236.034 205.669 236.007 205.585 235.953C205.501 235.899 205.436 235.825 205.389 235.729C205.342 235.633 205.318 235.523 205.318 235.399C205.318 235.195 205.37 235.031 205.472 234.907C205.576 234.782 205.718 234.72 205.898 234.72C205.998 234.72 206.084 234.746 206.158 234.799C206.232 234.852 206.289 234.92 206.329 235.004C206.369 235.088 206.388 235.176 206.386 235.269H205.554C205.553 235.28 205.553 235.295 205.553 235.314C205.553 235.532 205.587 235.693 205.657 235.798C205.727 235.902 205.826 235.955 205.954 235.955C206.036 235.955 206.112 235.935 206.181 235.896C206.25 235.857 206.305 235.793 206.345 235.704L206.385 235.752C206.347 235.846 206.283 235.917 206.193 235.963C206.104 236.01 206 236.034 205.879 236.034ZM205.884 234.767C205.831 234.767 205.781 234.789 205.734 234.834C205.688 234.878 205.649 234.935 205.617 235.005C205.586 235.075 205.566 235.146 205.557 235.221H206.155C206.158 235.053 206.137 234.935 206.092 234.868C206.048 234.8 205.979 234.767 205.884 234.767ZM206.577 236V235.955C206.653 235.953 206.706 235.94 206.736 235.917C206.767 235.893 206.782 235.848 206.782 235.78V234.387C206.782 234.327 206.766 234.278 206.735 234.242C206.705 234.205 206.652 234.183 206.577 234.175V234.129C206.608 234.132 206.637 234.134 206.665 234.135C206.692 234.136 206.719 234.137 206.747 234.137C206.794 234.137 206.839 234.134 206.881 234.129C206.924 234.124 206.964 234.115 207 234.103V235.78C207 235.848 207.015 235.893 207.045 235.917C207.076 235.94 207.129 235.953 207.205 235.955V236C207.175 235.998 207.13 235.996 207.07 235.994C207.011 235.991 206.951 235.99 206.892 235.99C206.832 235.99 206.772 235.991 206.713 235.994C206.653 235.996 206.608 235.998 206.577 236Z" fill="white"/>
</g>
<g id="Diamante">
<path id="Rectangle 2_6" d="M434.501 487.583L445.583 476.501C446.918 475.166 449.082 475.166 450.417 476.501L461.499 487.583C462.834 488.918 462.834 491.082 461.499 492.417L450.417 503.499C449.082 504.834 446.918 504.834 445.583 503.499L434.501 492.417C433.166 491.082 433.166 488.918 434.501 487.583Z" fill="black" fill-opacity="0.9" stroke="#242424"/>
<path id="Vector_11" d="M431 491C431.209 496.979 437.829 496.949 441.728 499.946C439.205 498.863 435.069 499.101 432.076 497.176C433.472 501.675 438.453 500.194 442.111 501.417C439.933 501.206 437.06 502.425 434.344 501.461C436.742 505.209 439.853 502.705 442.867 502.727C441.347 503.111 439.777 504.792 437.678 504.634C440.236 507.075 441.575 504.705 443.408 503.796C443.405 503.799 443.403 503.801 443.401 503.804C443.474 503.766 443.552 503.738 443.633 503.72C443.694 503.707 443.756 503.699 443.819 503.698C444.25 503.692 444.641 503.986 444.738 504.42C444.779 504.604 444.762 504.797 444.688 504.971C444.686 504.951 444.682 504.932 444.678 504.913C444.592 504.524 444.203 504.278 443.811 504.364C443.419 504.45 443.171 504.835 443.257 505.224C443.269 505.277 443.287 505.328 443.311 505.377C443.305 505.373 443.299 505.369 443.293 505.365C443.311 505.394 443.33 505.421 443.35 505.449C443.389 505.511 443.437 505.566 443.492 505.614C443.722 505.839 444.034 505.983 444.383 505.999C445.129 506.032 445.761 505.458 445.794 504.718C445.821 504.117 445.446 503.59 444.903 503.396C444.903 503.396 444.902 503.396 444.902 503.396C444.593 503.225 444.323 503.018 444.095 502.786C444.613 503.016 445.242 502.904 445.645 502.466C446.149 501.92 446.112 501.072 445.561 500.572C445.246 500.287 444.834 500.177 444.443 500.236C444.34 500.242 444.237 500.272 444.144 500.331C443.854 500.514 443.769 500.896 443.954 501.184C444.139 501.471 444.524 501.555 444.814 501.372C444.967 501.275 445.062 501.123 445.092 500.959C445.172 501.324 445.022 501.717 444.685 501.93C444.254 502.203 443.68 502.078 443.405 501.65C443.32 501.518 443.271 501.367 443.261 501.211C443.261 501.21 443.261 501.209 443.261 501.208C443.249 501.14 443.241 501.071 443.236 501.003C442.916 496.304 435.019 495.692 431 491L431 491Z" fill="url(#paint10_linear_1_2)"/>
<path id="Vector_12" d="M465 491C464.791 496.979 458.171 496.949 454.272 499.946C456.795 498.863 460.931 499.101 463.924 497.176C462.528 501.675 457.547 500.194 453.889 501.417C456.067 501.206 458.94 502.425 461.656 501.461C459.258 505.209 456.147 502.705 453.133 502.727C454.653 503.111 456.223 504.792 458.322 504.634C455.764 507.075 454.425 504.705 452.592 503.796C452.595 503.799 452.597 503.801 452.599 503.804C452.526 503.766 452.448 503.738 452.367 503.72C452.306 503.707 452.244 503.699 452.181 503.698C451.75 503.692 451.359 503.986 451.262 504.42C451.221 504.604 451.238 504.797 451.312 504.971C451.314 504.951 451.318 504.932 451.322 504.913C451.408 504.524 451.797 504.278 452.189 504.364C452.581 504.45 452.829 504.835 452.743 505.224C452.731 505.277 452.713 505.328 452.689 505.377C452.695 505.373 452.701 505.369 452.707 505.365C452.689 505.394 452.67 505.421 452.65 505.449C452.611 505.511 452.563 505.566 452.508 505.614C452.278 505.839 451.966 505.983 451.617 505.999C450.871 506.032 450.239 505.458 450.206 504.718C450.179 504.117 450.554 503.59 451.097 503.396C451.097 503.396 451.098 503.396 451.098 503.396C451.407 503.225 451.677 503.018 451.905 502.786C451.387 503.016 450.758 502.904 450.355 502.466C449.851 501.92 449.888 501.072 450.439 500.572C450.754 500.287 451.166 500.177 451.557 500.236C451.66 500.242 451.763 500.272 451.856 500.331C452.146 500.514 452.231 500.896 452.046 501.184C451.861 501.471 451.476 501.555 451.186 501.372C451.033 501.275 450.938 501.123 450.908 500.959C450.828 501.324 450.978 501.717 451.315 501.93C451.746 502.203 452.32 502.078 452.595 501.65C452.68 501.518 452.729 501.367 452.739 501.211C452.739 501.21 452.739 501.209 452.739 501.208C452.751 501.14 452.759 501.071 452.764 501.003C453.084 496.304 460.981 495.692 465 491L465 491Z" fill="url(#paint11_linear_1_2)"/>
<path id="5" d="M445.891 492.982C445.76 492.982 445.695 492.904 445.695 492.748C445.695 492.54 445.832 492.357 446.105 492.201L446.613 487.709H448.869C449.273 487.709 449.562 487.608 449.738 487.406C449.921 487.204 450.028 486.85 450.061 486.342H450.373C450.373 487.032 450.376 487.582 450.383 487.992C450.389 488.402 450.402 488.751 450.422 489.037C450.357 489.005 450.223 488.982 450.021 488.969C449.826 488.956 449.631 488.949 449.436 488.949H446.76L446.398 492.074C446.737 491.885 447.04 491.762 447.307 491.703C447.58 491.638 447.863 491.605 448.156 491.605C448.99 491.605 449.634 491.902 450.09 492.494C450.552 493.08 450.783 493.878 450.783 494.887C450.783 495.564 450.646 496.169 450.373 496.703C450.1 497.237 449.729 497.657 449.26 497.963C448.791 498.269 448.267 498.422 447.688 498.422C446.997 498.422 446.411 498.217 445.93 497.807C445.448 497.403 445.207 496.911 445.207 496.332C445.207 496.033 445.279 495.798 445.422 495.629C445.572 495.453 445.777 495.365 446.037 495.365C446.493 495.365 446.721 495.583 446.721 496.02C446.721 496.247 446.662 496.43 446.545 496.566C446.428 496.71 446.369 496.911 446.369 497.172C446.369 497.758 446.695 498.051 447.346 498.051C447.925 498.051 448.384 497.768 448.723 497.201C449.061 496.635 449.23 495.87 449.23 494.906C449.23 493.995 449.058 493.288 448.713 492.787C448.374 492.286 447.906 492.035 447.307 492.035C447.131 492.035 446.962 492.061 446.799 492.113C446.643 492.165 446.496 492.227 446.359 492.299C446.346 492.501 446.298 492.667 446.213 492.797C446.128 492.921 446.021 492.982 445.891 492.982Z" fill="white"/>
<path id="Level_6" d="M444.875 483V482.955C444.967 482.95 445.033 482.938 445.073 482.921C445.113 482.903 445.138 482.88 445.146 482.851C445.156 482.821 445.161 482.787 445.161 482.747V481.54C445.161 481.483 445.154 481.441 445.141 481.415C445.128 481.388 445.101 481.369 445.06 481.358C445.02 481.347 444.958 481.338 444.875 481.332V481.288C444.907 481.289 444.956 481.29 445.022 481.292C445.088 481.294 445.172 481.295 445.272 481.295C445.386 481.295 445.48 481.294 445.557 481.293C445.634 481.292 445.692 481.29 445.732 481.288V481.332C445.634 481.338 445.56 481.349 445.51 481.362C445.461 481.375 445.428 481.395 445.412 481.422C445.395 481.45 445.387 481.489 445.387 481.54V482.747C445.387 482.791 445.391 482.828 445.4 482.858C445.41 482.887 445.433 482.91 445.469 482.925C445.505 482.94 445.564 482.947 445.646 482.947H445.743C445.84 482.947 445.925 482.943 445.998 482.934C446.07 482.924 446.132 482.903 446.185 482.871C446.239 482.838 446.287 482.787 446.329 482.717C446.371 482.648 446.411 482.553 446.449 482.432H446.494C446.479 482.544 446.467 482.646 446.459 482.739C446.452 482.832 446.45 482.919 446.453 483C446.364 482.998 446.264 482.997 446.151 482.996C446.04 482.994 445.909 482.993 445.757 482.993C445.563 482.993 445.392 482.994 445.243 482.996C445.096 482.997 444.973 482.998 444.875 483ZM447.284 483.034C447.171 483.034 447.073 483.007 446.989 482.953C446.905 482.899 446.84 482.825 446.793 482.729C446.746 482.633 446.723 482.523 446.723 482.399C446.723 482.195 446.774 482.031 446.876 481.907C446.98 481.782 447.122 481.72 447.303 481.72C447.402 481.72 447.489 481.746 447.562 481.799C447.636 481.852 447.693 481.92 447.733 482.004C447.773 482.088 447.792 482.176 447.791 482.269H446.958C446.958 482.28 446.957 482.295 446.957 482.314C446.957 482.532 446.992 482.693 447.061 482.798C447.131 482.902 447.23 482.955 447.358 482.955C447.44 482.955 447.516 482.935 447.585 482.896C447.655 482.857 447.709 482.793 447.75 482.704L447.789 482.752C447.751 482.846 447.687 482.917 447.597 482.963C447.508 483.01 447.404 483.034 447.284 483.034ZM447.288 481.767C447.235 481.767 447.186 481.789 447.139 481.834C447.093 481.878 447.054 481.935 447.021 482.005C446.99 482.075 446.97 482.146 446.961 482.221H447.559C447.562 482.053 447.541 481.935 447.496 481.868C447.452 481.8 447.383 481.767 447.288 481.767ZM448.587 483.031H448.545L448.132 481.944C448.099 481.855 448.036 481.808 447.943 481.802V481.755C447.977 481.756 448.013 481.757 448.05 481.758C448.087 481.759 448.135 481.759 448.195 481.759C448.274 481.759 448.334 481.759 448.376 481.759C448.418 481.759 448.462 481.758 448.508 481.755V481.802C448.445 481.802 448.402 481.817 448.381 481.847C448.359 481.876 448.364 481.933 448.396 482.017L448.647 482.687L448.835 482.08C448.854 482.021 448.868 481.972 448.877 481.932C448.887 481.892 448.881 481.861 448.86 481.84C448.838 481.817 448.79 481.805 448.715 481.802V481.755C448.775 481.758 448.819 481.76 448.845 481.761C448.872 481.761 448.904 481.761 448.943 481.761C448.985 481.761 449.023 481.761 449.058 481.761C449.092 481.761 449.122 481.759 449.147 481.755V481.802C449.076 481.818 449.016 481.864 448.968 481.939C448.92 482.014 448.875 482.119 448.832 482.256L448.587 483.031ZM449.879 483.034C449.767 483.034 449.669 483.007 449.585 482.953C449.501 482.899 449.436 482.825 449.389 482.729C449.342 482.633 449.318 482.523 449.318 482.399C449.318 482.195 449.37 482.031 449.472 481.907C449.576 481.782 449.718 481.72 449.898 481.72C449.998 481.72 450.084 481.746 450.158 481.799C450.232 481.852 450.289 481.92 450.329 482.004C450.369 482.088 450.388 482.176 450.386 482.269H449.554C449.553 482.28 449.553 482.295 449.553 482.314C449.553 482.532 449.587 482.693 449.657 482.798C449.727 482.902 449.826 482.955 449.954 482.955C450.036 482.955 450.112 482.935 450.181 482.896C450.25 482.857 450.305 482.793 450.345 482.704L450.385 482.752C450.347 482.846 450.283 482.917 450.193 482.963C450.104 483.01 450 483.034 449.879 483.034ZM449.884 481.767C449.831 481.767 449.781 481.789 449.734 481.834C449.688 481.878 449.649 481.935 449.617 482.005C449.586 482.075 449.566 482.146 449.557 482.221H450.155C450.158 482.053 450.137 481.935 450.092 481.868C450.048 481.8 449.979 481.767 449.884 481.767ZM450.577 483V482.955C450.653 482.953 450.706 482.94 450.736 482.917C450.767 482.893 450.782 482.848 450.782 482.78V481.387C450.782 481.327 450.766 481.278 450.735 481.242C450.705 481.205 450.652 481.183 450.577 481.175V481.129C450.608 481.132 450.637 481.134 450.665 481.135C450.692 481.136 450.719 481.137 450.747 481.137C450.794 481.137 450.839 481.134 450.881 481.129C450.924 481.124 450.964 481.115 451 481.103V482.78C451 482.848 451.015 482.893 451.045 482.917C451.076 482.94 451.129 482.953 451.205 482.955V483C451.175 482.998 451.13 482.996 451.07 482.994C451.011 482.991 450.951 482.99 450.892 482.99C450.832 482.99 450.772 482.991 450.713 482.994C450.653 482.996 450.608 482.998 450.577 483Z" fill="white"/>
</g>
<g id="Hell">
<path id="Rectangle 2_7" d="M408.501 233.583L419.583 222.501C420.918 221.166 423.082 221.166 424.417 222.501L435.499 233.583C436.834 234.918 436.834 237.082 435.499 238.417L424.417 249.499C423.082 250.834 420.918 250.834 419.583 249.499L408.501 238.417C407.166 237.082 407.166 234.918 408.501 233.583Z" fill="black" fill-opacity="0.9" stroke="#242424"/>
<path id="Vector_13" d="M405 237C405.209 242.979 411.829 242.949 415.728 245.946C413.205 244.863 409.069 245.101 406.076 243.176C407.472 247.675 412.453 246.194 416.111 247.417C413.933 247.206 411.06 248.425 408.344 247.461C410.742 251.209 413.853 248.705 416.867 248.727C415.347 249.111 413.777 250.792 411.678 250.634C414.236 253.075 415.575 250.705 417.408 249.796C417.405 249.799 417.403 249.801 417.401 249.804C417.474 249.766 417.552 249.738 417.633 249.72C417.694 249.707 417.756 249.699 417.819 249.698C418.25 249.692 418.641 249.986 418.738 250.42C418.779 250.604 418.762 250.797 418.688 250.971C418.686 250.951 418.682 250.932 418.678 250.913C418.592 250.524 418.203 250.278 417.811 250.364C417.419 250.45 417.171 250.835 417.257 251.224C417.269 251.277 417.287 251.328 417.311 251.377C417.305 251.373 417.299 251.369 417.293 251.365C417.311 251.394 417.33 251.421 417.35 251.449C417.389 251.511 417.437 251.566 417.492 251.614C417.722 251.839 418.034 251.983 418.383 251.999C419.129 252.032 419.761 251.458 419.794 250.718C419.821 250.117 419.446 249.59 418.903 249.396C418.903 249.396 418.902 249.396 418.902 249.396C418.593 249.225 418.323 249.018 418.095 248.786C418.613 249.016 419.242 248.904 419.645 248.466C420.149 247.92 420.112 247.072 419.561 246.572C419.246 246.287 418.834 246.177 418.443 246.236C418.34 246.242 418.237 246.272 418.144 246.331C417.854 246.514 417.769 246.896 417.954 247.184C418.139 247.471 418.524 247.555 418.814 247.372C418.967 247.275 419.062 247.123 419.092 246.959C419.172 247.324 419.022 247.717 418.685 247.93C418.254 248.203 417.68 248.078 417.405 247.65C417.32 247.518 417.271 247.367 417.261 247.211C417.261 247.21 417.261 247.209 417.261 247.208C417.249 247.14 417.241 247.071 417.236 247.003C416.916 242.304 409.019 241.692 405 237L405 237Z" fill="url(#paint12_linear_1_2)"/>
<path id="Vector_14" d="M439 237C438.791 242.979 432.171 242.949 428.272 245.946C430.795 244.863 434.931 245.101 437.924 243.176C436.528 247.675 431.547 246.194 427.889 247.417C430.067 247.206 432.94 248.425 435.656 247.461C433.258 251.209 430.147 248.705 427.133 248.727C428.653 249.111 430.223 250.792 432.322 250.634C429.764 253.075 428.425 250.705 426.592 249.796C426.595 249.799 426.597 249.801 426.599 249.804C426.526 249.766 426.448 249.738 426.367 249.72C426.306 249.707 426.244 249.699 426.181 249.698C425.75 249.692 425.359 249.986 425.262 250.42C425.221 250.604 425.238 250.797 425.312 250.971C425.314 250.951 425.318 250.932 425.322 250.913C425.408 250.524 425.797 250.278 426.189 250.364C426.581 250.45 426.829 250.835 426.743 251.224C426.731 251.277 426.713 251.328 426.689 251.377C426.695 251.373 426.701 251.369 426.707 251.365C426.689 251.394 426.67 251.421 426.65 251.449C426.611 251.511 426.563 251.566 426.508 251.614C426.278 251.839 425.966 251.983 425.617 251.999C424.871 252.032 424.239 251.458 424.206 250.718C424.179 250.117 424.554 249.59 425.097 249.396C425.097 249.396 425.098 249.396 425.098 249.396C425.407 249.225 425.677 249.018 425.905 248.786C425.387 249.016 424.758 248.904 424.355 248.466C423.851 247.92 423.888 247.072 424.439 246.572C424.754 246.287 425.166 246.177 425.557 246.236C425.66 246.242 425.763 246.272 425.856 246.331C426.146 246.514 426.231 246.896 426.046 247.184C425.861 247.471 425.476 247.555 425.186 247.372C425.033 247.275 424.938 247.123 424.908 246.959C424.828 247.324 424.978 247.717 425.315 247.93C425.746 248.203 426.32 248.078 426.595 247.65C426.68 247.518 426.729 247.367 426.739 247.211C426.739 247.21 426.739 247.209 426.739 247.208C426.751 247.14 426.759 247.071 426.764 247.003C427.084 242.304 434.981 241.692 439 237L439 237Z" fill="url(#paint13_linear_1_2)"/>
<path id="9" d="M421.561 244.422C421.124 244.422 420.721 244.334 420.35 244.158C419.985 243.989 419.689 243.761 419.461 243.475C419.24 243.195 419.129 242.885 419.129 242.547C419.129 242.28 419.201 242.072 419.344 241.922C419.487 241.772 419.679 241.697 419.92 241.697C420.128 241.697 420.294 241.759 420.418 241.883C420.548 242 420.613 242.163 420.613 242.371C420.613 242.573 420.574 242.752 420.496 242.908C420.418 243.071 420.379 243.234 420.379 243.396C420.379 243.598 420.473 243.768 420.662 243.904C420.851 244.041 421.089 244.109 421.375 244.109C422.736 244.109 423.416 242.394 423.416 238.963C423.416 238.878 423.416 238.797 423.416 238.719C423.26 239.122 423.016 239.435 422.684 239.656C422.358 239.878 421.967 239.988 421.512 239.988C420.763 239.988 420.161 239.702 419.705 239.129C419.256 238.549 419.031 237.794 419.031 236.863C419.031 235.841 419.288 235.021 419.803 234.402C420.317 233.777 420.997 233.465 421.844 233.465C422.846 233.465 423.618 233.914 424.158 234.812C424.699 235.704 424.969 236.971 424.969 238.611C424.969 240.395 424.663 241.808 424.051 242.85C423.439 243.898 422.609 244.422 421.561 244.422ZM420.584 236.785C420.584 238.608 421.059 239.52 422.01 239.52C422.342 239.52 422.628 239.419 422.869 239.217C423.117 239.008 423.296 238.725 423.406 238.367C423.374 236.915 423.217 235.786 422.938 234.979C422.658 234.171 422.286 233.768 421.824 233.768C421.46 233.768 421.16 234.044 420.926 234.598C420.698 235.145 420.584 235.874 420.584 236.785Z" fill="white"/>
<path id="Level_7" d="M418.875 229V228.955C418.967 228.95 419.033 228.938 419.073 228.921C419.113 228.903 419.138 228.88 419.146 228.851C419.156 228.821 419.161 228.787 419.161 228.747V227.54C419.161 227.483 419.154 227.441 419.141 227.415C419.128 227.388 419.101 227.369 419.06 227.358C419.02 227.347 418.958 227.338 418.875 227.332V227.288C418.907 227.289 418.956 227.29 419.022 227.292C419.088 227.294 419.172 227.295 419.272 227.295C419.386 227.295 419.48 227.294 419.557 227.293C419.634 227.292 419.692 227.29 419.732 227.288V227.332C419.634 227.338 419.56 227.349 419.51 227.362C419.461 227.375 419.428 227.395 419.412 227.422C419.395 227.45 419.387 227.489 419.387 227.54V228.747C419.387 228.791 419.391 228.828 419.4 228.858C419.41 228.887 419.433 228.91 419.469 228.925C419.505 228.94 419.564 228.947 419.646 228.947H419.743C419.84 228.947 419.925 228.943 419.998 228.934C420.07 228.924 420.132 228.903 420.185 228.871C420.239 228.838 420.287 228.787 420.329 228.717C420.371 228.648 420.411 228.553 420.449 228.432H420.494C420.479 228.544 420.467 228.646 420.459 228.739C420.452 228.832 420.45 228.919 420.453 229C420.364 228.998 420.264 228.997 420.151 228.996C420.04 228.994 419.909 228.993 419.757 228.993C419.563 228.993 419.392 228.994 419.243 228.996C419.096 228.997 418.973 228.998 418.875 229ZM421.284 229.034C421.171 229.034 421.073 229.007 420.989 228.953C420.905 228.899 420.84 228.825 420.793 228.729C420.746 228.633 420.723 228.523 420.723 228.399C420.723 228.195 420.774 228.031 420.876 227.907C420.98 227.782 421.122 227.72 421.303 227.72C421.402 227.72 421.489 227.746 421.562 227.799C421.636 227.852 421.693 227.92 421.733 228.004C421.773 228.088 421.792 228.176 421.791 228.269H420.958C420.958 228.28 420.957 228.295 420.957 228.314C420.957 228.532 420.992 228.693 421.061 228.798C421.131 228.902 421.23 228.955 421.358 228.955C421.44 228.955 421.516 228.935 421.585 228.896C421.655 228.857 421.709 228.793 421.75 228.704L421.789 228.752C421.751 228.846 421.687 228.917 421.597 228.963C421.508 229.01 421.404 229.034 421.284 229.034ZM421.288 227.767C421.235 227.767 421.186 227.789 421.139 227.834C421.093 227.878 421.054 227.935 421.021 228.005C420.99 228.075 420.97 228.146 420.961 228.221H421.559C421.562 228.053 421.541 227.935 421.496 227.868C421.452 227.8 421.383 227.767 421.288 227.767ZM422.587 229.031H422.545L422.132 227.944C422.099 227.855 422.036 227.808 421.943 227.802V227.755C421.977 227.756 422.013 227.757 422.05 227.758C422.087 227.759 422.135 227.759 422.195 227.759C422.274 227.759 422.334 227.759 422.376 227.759C422.418 227.759 422.462 227.758 422.508 227.755V227.802C422.445 227.802 422.402 227.817 422.381 227.847C422.359 227.876 422.364 227.933 422.396 228.017L422.647 228.687L422.835 228.08C422.854 228.021 422.868 227.972 422.877 227.932C422.887 227.892 422.881 227.861 422.86 227.84C422.838 227.817 422.79 227.805 422.715 227.802V227.755C422.775 227.758 422.819 227.76 422.845 227.761C422.872 227.761 422.904 227.761 422.943 227.761C422.985 227.761 423.023 227.761 423.058 227.761C423.092 227.761 423.122 227.759 423.147 227.755V227.802C423.076 227.818 423.016 227.864 422.968 227.939C422.92 228.014 422.875 228.119 422.832 228.256L422.587 229.031ZM423.879 229.034C423.767 229.034 423.669 229.007 423.585 228.953C423.501 228.899 423.436 228.825 423.389 228.729C423.342 228.633 423.318 228.523 423.318 228.399C423.318 228.195 423.37 228.031 423.472 227.907C423.576 227.782 423.718 227.72 423.898 227.72C423.998 227.72 424.084 227.746 424.158 227.799C424.232 227.852 424.289 227.92 424.329 228.004C424.369 228.088 424.388 228.176 424.386 228.269H423.554C423.553 228.28 423.553 228.295 423.553 228.314C423.553 228.532 423.587 228.693 423.657 228.798C423.727 228.902 423.826 228.955 423.954 228.955C424.036 228.955 424.112 228.935 424.181 228.896C424.25 228.857 424.305 228.793 424.345 228.704L424.385 228.752C424.347 228.846 424.283 228.917 424.193 228.963C424.104 229.01 424 229.034 423.879 229.034ZM423.884 227.767C423.831 227.767 423.781 227.789 423.734 227.834C423.688 227.878 423.649 227.935 423.617 228.005C423.586 228.075 423.566 228.146 423.557 228.221H424.155C424.158 228.053 424.137 227.935 424.092 227.868C424.048 227.8 423.979 227.767 423.884 227.767ZM424.577 229V228.955C424.653 228.953 424.706 228.94 424.736 228.917C424.767 228.893 424.782 228.848 424.782 228.78V227.387C424.782 227.327 424.766 227.278 424.735 227.242C424.705 227.205 424.652 227.183 424.577 227.175V227.129C424.608 227.132 424.637 227.134 424.665 227.135C424.692 227.136 424.719 227.137 424.747 227.137C424.794 227.137 424.839 227.134 424.881 227.129C424.924 227.124 424.964 227.115 425 227.103V228.78C425 228.848 425.015 228.893 425.045 228.917C425.076 228.94 425.129 228.953 425.205 228.955V229C425.175 228.998 425.13 228.996 425.07 228.994C425.011 228.991 424.951 228.99 424.892 228.99C424.832 228.99 424.772 228.991 424.713 228.994C424.653 228.996 424.608 228.998 424.577 229Z" fill="white"/>
</g>
</g>
<defs>
<linearGradient id="paint0_linear_1_2" x1="143" y1="535.5" x2="158" y2="535.5" gradientUnits="userSpaceOnUse">
<stop/>
<stop offset="1" stop-color="#600080"/>
</linearGradient>
<linearGradient id="paint1_linear_1_2" x1="177" y1="535.5" x2="162" y2="535.5" gradientUnits="userSpaceOnUse">
<stop/>
<stop offset="1" stop-color="#600080"/>
</linearGradient>
<linearGradient id="paint2_linear_1_2" x1="635" y1="78.5" x2="650" y2="78.5" gradientUnits="userSpaceOnUse">
<stop/>
<stop offset="1" stop-color="#006200"/>
</linearGradient>
<linearGradient id="paint3_linear_1_2" x1="669" y1="78.5" x2="654" y2="78.5" gradientUnits="userSpaceOnUse">
<stop/>
<stop offset="1" stop-color="#006200"/>
</linearGradient>
<linearGradient id="paint4_linear_1_2" x1="836" y1="326.5" x2="851" y2="326.5" gradientUnits="userSpaceOnUse">
<stop/>
<stop offset="1" stop-color="#573D26"/>
</linearGradient>
<linearGradient id="paint5_linear_1_2" x1="870" y1="326.5" x2="855" y2="326.5" gradientUnits="userSpaceOnUse">
<stop/>
<stop offset="1" stop-color="#573D26"/>
</linearGradient>
<linearGradient id="paint6_linear_1_2" x1="693" y1="513.5" x2="708" y2="513.5" gradientUnits="userSpaceOnUse">
<stop/>
<stop offset="1" stop-color="#464646"/>
</linearGradient>
<linearGradient id="paint7_linear_1_2" x1="727" y1="513.5" x2="712" y2="513.5" gradientUnits="userSpaceOnUse">
<stop/>
<stop offset="1" stop-color="#464646"/>
</linearGradient>
<linearGradient id="paint8_linear_1_2" x1="187" y1="251.5" x2="202" y2="251.5" gradientUnits="userSpaceOnUse">
<stop/>
<stop offset="1" stop-color="#7B5E00"/>
</linearGradient>
<linearGradient id="paint9_linear_1_2" x1="221" y1="251.5" x2="206" y2="251.5" gradientUnits="userSpaceOnUse">
<stop/>
<stop offset="1" stop-color="#7B5E00"/>
</linearGradient>
<linearGradient id="paint10_linear_1_2" x1="431" y1="498.5" x2="446" y2="498.5" gradientUnits="userSpaceOnUse">
<stop/>
<stop offset="1" stop-color="#01B8C5"/>
</linearGradient>
<linearGradient id="paint11_linear_1_2" x1="465" y1="498.5" x2="450" y2="498.5" gradientUnits="userSpaceOnUse">
<stop/>
<stop offset="1" stop-color="#01B8C5"/>
</linearGradient>
<linearGradient id="paint12_linear_1_2" x1="405" y1="244.5" x2="420" y2="244.5" gradientUnits="userSpaceOnUse">
<stop/>
<stop offset="1" stop-color="#FF0000"/>
</linearGradient>
<linearGradient id="paint13_linear_1_2" x1="439" y1="244.5" x2="424" y2="244.5" gradientUnits="userSpaceOnUse">
<stop/>
<stop offset="1" stop-color="#FF0000"/>
</linearGradient>
</defs>
</svg>
